<?xml version="1.0" encoding="utf-8"?>
<!-- Svg Vector Icons : http://www.onlinewebfonts.com/icon -->
<!DOCTYPE svg PUBLIC "-//W3C//DTD SVG 1.1//EN" "http://www.w3.org/Graphics/SVG/1.1/DTD/svg11.dtd">
<svg version="1.1" xmlns="http://www.w3.org/2000/svg" xmlns:xlink="http://www.w3.org/1999/xlink" x="0px" y="0px" viewBox="0 0 1000 1000" enable-background="new 0 0 1000 1000" xml:space="preserve">
<metadata> Svg Vector Icons : http://www.onlinewebfonts.com/icon </metadata>
<g><path d="M798.3,372.2h-42.6V265.7C755.7,124.4,641.2,10,500,10c-141.2,0-255.7,114.4-255.7,255.7v106.5h-42.6c-58.8,0-106.5,47.7-106.5,106.5l0,404.8c0,58.8,47.7,106.5,106.5,106.5h596.5c58.8,0,106.5-47.7,106.5-106.5V478.7C904.8,419.9,857.1,372.2,798.3,372.2z M500,52.6c117.7,0,213.1,95.4,213.1,213v106.5H287V265.7h0C286.9,148,382.3,52.6,500,52.6z M862.2,883.5c0,35.3-28.6,63.9-63.9,63.9H201.7c-35.3,0-63.9-28.6-63.9-63.9V478.7c0-35.3,28.6-63.9,63.9-63.9h596.5c35.3,0,63.9,28.6,63.9,63.9V883.5z"/><path d="M765.1,521.8c-4.3-4.3-11.2-4.3-15.5,0L451.4,821.2l-158-158.6c-4.3-4.3-11.2-4.3-15.5,0c-4.3,4.3-4.3,11.2,0,15.5l165.7,166.4c2.1,2.1,4.8,3.2,7.8,3.2c2.9,0,5.7-1.2,7.8-3.2l305.9-307.1C769.4,533.1,769.4,526.1,765.1,521.8z"/></g>
</svg>