<?xml version="1.0" encoding="utf-8"?>
<!-- Generator: Adobe Illustrator 21.0.0, SVG Export Plug-In . SVG Version: 6.00 Build 0)  -->
<svg version="1.1" xmlns="http://www.w3.org/2000/svg" xmlns:xlink="http://www.w3.org/1999/xlink" x="0px" y="0px"
	 viewBox="0 0 1400 980" enable-background="new 0 0 1400 980" xml:space="preserve">
<g id="Layer_2" display="none">
	<g display="inline">
		<path fill="none" stroke="#0D0E1F" stroke-width="5" stroke-miterlimit="10" d="M570.091,401.98
			c-18.117-8.104-37.768-1.536-52.899,11.307c-13.506,11.463-14.09,36.321-13.462,40.786c7.068,50.27,57.439,184.454,75.195,188.74
			c19.333,4.667,21.667-134.333,21.667-169.667C600.591,444.88,600.47,415.569,570.091,401.98z"/>
		<path fill="none" stroke="#0D0E1F" stroke-width="5" stroke-miterlimit="10" d="M517.192,413.287c0,0-24.501-23.742-12.268-34.14
			c13.333-11.333,22.632,13.652,24.649,24.659"/>
		<path fill="none" stroke="#0D0E1F" stroke-width="5" stroke-miterlimit="10" d="M562.772,399.451c0,0,15.819-35.638-4.394-33.682
			c-13.62,1.318-10.119,32.337-10.119,32.337"/>
		<path fill="none" stroke="#0D0E1F" stroke-width="5" stroke-miterlimit="10" d="M515.538,377.284c0,0-26.452-49.338,0-60.471
			c27.72-11.667,33.737,59.45,33.737,59.45"/>
		<g>
			<g>
				<g>
					<path fill="#0D0E1F" d="M532.324,376.734c2.129,7.52,4.065,15.096,5.839,22.713l1.704-0.397l1.704-0.397
						c-1.785-7.664-3.734-15.294-5.88-22.871c0,0-1.945-7-4.975-15.751c-3.015-8.763-7.153-19.194-10.376-26.55
						c1.559,7.898,4.882,18.652,7.459,27.483C530.396,369.795,532.324,376.734,532.324,376.734z"/>
				</g>
			</g>
		</g>
		<g>
			<g>
				<g>
					<path fill="#0D0E1F" d="M518.347,400.98l3.492,7.453l1.585-0.742l1.585-0.742l-3.492-7.453c0,0-4.292-9.161-8.249-13.481
						C514.054,391.819,518.347,400.98,518.347,400.98z"/>
				</g>
			</g>
		</g>
		<g>
			<g>
				<g>
					<path fill="#0D0E1F" d="M554.676,391.657c-0.442,1.915-0.93,3.819-1.453,5.713l1.686,0.468l1.686,0.468
						c0.537-1.943,1.037-3.895,1.491-5.859c0,0,0.429-1.811,0.679-4.177c0.258-2.363,0.306-5.279-0.267-7.412
						c-1.159,1.88-2.059,4.584-2.736,6.81C555.094,389.897,554.676,391.657,554.676,391.657z"/>
				</g>
			</g>
		</g>
		<path fill="none" stroke="#0D0E1F" stroke-width="5" stroke-miterlimit="10" d="M534.208,557.559c0,0-45.423-14.204-76.554-51.595
			c-2.305-2.769-6.71-0.313-5.537,3.093c6.713,19.498,24.442,46.384,93.915,78.095"/>
		<path fill="none" stroke="#0D0E1F" stroke-width="5" stroke-miterlimit="10" d="M518.657,512.836
			c-7.031,4.205-14.823,1.192-19.816-5.303c-3.559-4.629-4.47-10.691-6.482-16.173c-2.012-5.481-6.113-11.087-11.943-11.419
			c-4.676-0.266-9.005,2.992-13.683,2.771c-6.072-0.287-10.194-6.057-13.488-11.167s-7.803-10.732-13.876-10.457
			c-9.823,0.445-12.771,15.112-22.08,18.28c-4.67,1.589-9.726-0.148-14.482-1.456s-10.361-2.021-14.176,1.107
			c-5.43,4.452-3.17,13.833,2.302,18.233c5.472,4.4,12.792,5.473,19.556,7.359s13.947,5.429,16.235,12.067
			c2.348,6.81-1.302,14.035-4,20.714s-4.043,15.442,1.415,20.143c7.194,6.197,20.069-0.026,27.043,6.418
			c4.405,4.069,4.011,11.041,3.048,16.96s-1.963,12.648,1.762,17.348c2.604,3.286,7.001,4.695,11.193,4.787
			c7.852,0.172,15.179-3.578,22.748-5.673c7.569-2.096,16.881-2.027,21.888,4.024c2.698,3.259,3.571,7.598,4.975,11.589
			c1.404,3.991,3.838,8.134,7.908,9.292c5.545,1.578,10.846-3.1,14.162-7.816s6.501-10.304,12.045-11.882"/>
		<g>
			<g>
				<path fill="#0D0E1F" d="M446.841,546.73c1.93,0,1.934-3,0-3C444.911,543.73,444.908,546.73,446.841,546.73L446.841,546.73z"/>
			</g>
		</g>
		<g>
			<g>
				<path fill="#0D0E1F" d="M452.758,552.98c2.574,0,2.578-4,0-4C450.184,548.98,450.18,552.98,452.758,552.98L452.758,552.98z"/>
			</g>
		</g>
		<g>
			<g>
				<path fill="#0D0E1F" d="M470.258,594.313c2.574,0,2.578-4,0-4C467.684,590.313,467.68,594.313,470.258,594.313L470.258,594.313z
					"/>
			</g>
		</g>
		<g>
			<g>
				<path fill="#0D0E1F" d="M508.591,532.98c2.574,0,2.578-4,0-4C506.017,528.98,506.013,532.98,508.591,532.98L508.591,532.98z"/>
			</g>
		</g>
		<g>
			<g>
				<path fill="#0D0E1F" d="M441.591,479.147c1.93,0,1.934-3,0-3C439.661,476.147,439.658,479.147,441.591,479.147L441.591,479.147z
					"/>
			</g>
		</g>
		<g>
			<g>
				<g>
					<path fill="#0D0E1F" d="M536.46,587.448l1.535-4.098l-1.639-0.614l-1.639-0.614l-1.535,4.098c0,0-1.887,5.037-1.291,8.435
						C534.573,592.485,536.46,587.448,536.46,587.448z"/>
				</g>
			</g>
		</g>
		<g>
			<g>
				<g>
					<path fill="#0D0E1F" d="M507.769,575.108l5.319-2.6l-0.769-1.572l-0.769-1.572l-5.319,2.6c0,0-6.538,3.196-9.382,6.534
						C501.231,578.304,507.769,575.108,507.769,575.108z"/>
				</g>
			</g>
		</g>
		<g>
			<g>
				<g>
					<path fill="#0D0E1F" d="M476.094,555.076l5.932-2.404l-0.657-1.622l-0.657-1.622l-5.932,2.404c0,0-7.292,2.955-10.664,6.21
						C468.803,558.031,476.094,555.076,476.094,555.076z"/>
				</g>
			</g>
		</g>
		<g>
			<g>
				<g>
					<path fill="#0D0E1F" d="M451.948,530.01c2.85-0.417,5.709-0.772,8.573-1.079l-0.184-1.74l-0.184-1.74
						c-2.909,0.312-5.814,0.672-8.709,1.096c0,0-2.674,0.377-6.026,1.182c-3.353,0.793-7.37,2.052-10.066,3.55
						c3.077,0.21,7.208-0.178,10.59-0.533C449.321,530.381,451.948,530.01,451.948,530.01z"/>
				</g>
			</g>
		</g>
		<g>
			<g>
				<g>
					<path fill="#0D0E1F" d="M468.661,510.367l-2,4.029l1.567,0.778l1.567,0.778l2-4.029c0,0,2.459-4.952,2.25-8.466
						C471.12,505.415,468.661,510.367,468.661,510.367z"/>
				</g>
			</g>
		</g>
		<g>
			<g>
				<g>
					<path fill="#0D0E1F" d="M485.216,527.13c-0.401,1.328-0.707,2.684-0.937,4.053l1.727,0.283l1.727,0.283
						c0.205-1.22,0.478-2.431,0.837-3.616c0,0,0.309-1.093,0.651-2.535c0.328-1.451,0.742-3.24,0.673-4.837
						c-1.437,0.702-2.728,2.271-3.517,3.703C485.568,525.89,485.216,527.13,485.216,527.13z"/>
				</g>
			</g>
		</g>
		<g>
			<g>
				<g>
					<path fill="#0D0E1F" d="M517.482,546.907l0.684,3.869l1.723-0.305l1.723-0.305l-0.684-3.869c0,0-0.841-4.755-3.029-7.078
						C516.641,542.152,517.482,546.907,517.482,546.907z"/>
				</g>
			</g>
		</g>
		<path fill="none" stroke="#0D0E1F" stroke-width="5" stroke-miterlimit="10" d="M600.007,488.288
			c0,0,67.134-12.789,108.606,10.412c41.472,23.2,55.499,87.701,16.438,116.583c-39.061,28.882-135.557,11.527-135.557,11.527"/>
		<path fill="none" stroke="#0D0E1F" stroke-width="5" stroke-miterlimit="10" d="M701.412,495.012
			c-0.662,5.495-1.756,11.713-6.416,14.699c-3.789,2.429-8.913,1.814-12.853-0.363c-3.94-2.176-6.956-5.669-9.883-9.089
			c-3.139,7.35-6.381,14.859-11.821,20.714s-13.607,9.828-21.419,8.138c-5.179-1.12-9.619-4.587-12.867-8.773
			c-3.249-4.186-5.44-9.081-7.486-13.968c-5.474,3.918-13.899,2.846-18.218-2.317"/>
		<path fill="none" stroke="#0D0E1F" stroke-width="5" stroke-miterlimit="10" d="M631.091,484.78c0,0-7.35-34.721,3.5-41.129
			c7.5-4.429,15-1.453,13.5,6.849s-3.523,33.156-1.247,34.322"/>
		<g>
			<g>
				<path fill="#0D0E1F" d="M560.091,420.48c2.574,0,2.578-4,0-4C557.517,416.48,557.513,420.48,560.091,420.48L560.091,420.48z"/>
			</g>
		</g>
		<g>
			<g>
				<path fill="#0D0E1F" d="M567.925,421.48c2.574,0,2.578-4,0-4C565.351,417.48,565.346,421.48,567.925,421.48L567.925,421.48z"/>
			</g>
		</g>
		<g>
			<g>
				<path fill="#0D0E1F" d="M562.925,429.813c2.574,0,2.578-4,0-4C560.351,425.813,560.346,429.813,562.925,429.813L562.925,429.813
					z"/>
			</g>
		</g>
		<g>
			<g>
				<path fill="#0D0E1F" d="M569.591,619.147c2.574,0,2.578-4,0-4C567.017,615.147,567.013,619.147,569.591,619.147L569.591,619.147
					z"/>
			</g>
		</g>
		<g>
			<g>
				<path fill="#0D0E1F" d="M568.925,609.147c2.574,0,2.578-4,0-4C566.351,605.147,566.346,609.147,568.925,609.147L568.925,609.147
					z"/>
			</g>
		</g>
		<g>
			<g>
				<path fill="#0D0E1F" d="M602.341,619.98c2.574,0,2.578-4,0-4C599.767,615.98,599.763,619.98,602.341,619.98L602.341,619.98z"/>
			</g>
		</g>
		<g>
			<g>
				<path fill="#0D0E1F" d="M604.591,607.73c2.574,0,2.578-4,0-4C602.017,603.73,602.013,607.73,604.591,607.73L604.591,607.73z"/>
			</g>
		</g>
		<g>
			<g>
				<path fill="#0D0E1F" d="M612.841,618.73c2.574,0,2.578-4,0-4C610.267,614.73,610.263,618.73,612.841,618.73L612.841,618.73z"/>
			</g>
		</g>
		<g>
			<g>
				<path fill="#0D0E1F" d="M708.258,512.48c2.574,0,2.578-4,0-4C705.684,508.48,705.68,512.48,708.258,512.48L708.258,512.48z"/>
			</g>
		</g>
		<path fill="none" stroke="#0D0E1F" stroke-width="5" stroke-miterlimit="10" d="M721.192,507.685
			c9.145-16.957,13.106-36.306,17.299-54.634c3.116-13.605,10.824-23.887,25.617-23.887c13.068,0,23.697,4.798,29.16,17.483
			c7.114,16.526,1.206,35.408,7.021,51.99c5.723,16.291,22.241,27.84,29.281,43.821c10.981,24.91,2.411,60.065-22.269,73.21
			c-21.861,11.643-49.917,6.995-72.103-1.202c0,0-4.92-1.671-6.264-2.329"/>
		<path fill="none" stroke="#0D0E1F" stroke-width="5" stroke-miterlimit="10" d="M764.437,428.481
			c-0.528-5.852,0.335-11.825,2.499-17.288c0.394-0.995,0.923-2.065,1.921-2.452c0.708-0.274,1.501-0.138,2.244,0.014
			c1.945,0.399,3.872,0.885,5.773,1.458c1.916,0.578,2.823,2.757,1.956,4.561c-2.198,4.576-4.274,9.21-6.227,13.895"/>
		<g>
			<g>
				<path fill="#0D0E1F" d="M736.931,455.141c3.512,3.708,7.792,6.392,12.628,8.02c2.445,0.823,3.494-3.039,1.063-3.857
					c-4.189-1.41-7.828-3.786-10.863-6.991C737.985,450.44,735.16,453.272,736.931,455.141L736.931,455.141z"/>
			</g>
		</g>
		<g>
			<g>
				<path fill="#0D0E1F" d="M760.591,466.98c2.574,0,2.578-4,0-4C758.017,462.98,758.013,466.98,760.591,466.98L760.591,466.98z"/>
			</g>
		</g>
		<g>
			<g>
				<path fill="#0D0E1F" d="M810.591,554.23c2.574,0,2.578-4,0-4C808.017,550.23,808.013,554.23,810.591,554.23L810.591,554.23z"/>
			</g>
		</g>
		<g>
			<g>
				<path fill="#0D0E1F" d="M804.091,561.23c2.574,0,2.578-4,0-4C801.517,557.23,801.513,561.23,804.091,561.23L804.091,561.23z"/>
			</g>
		</g>
		<g>
			<g>
				<path fill="#0D0E1F" d="M807.598,563.732c-0.103,1.15,0.635,2.466,1.706,2.928c0.803,0.346,1.772,0.389,2.424-0.313
					c0.956-1.03,0.946-2.471,0.002-3.502c-0.708-0.774-2.12-0.772-2.828,0c-0.76,0.827-0.755,2.003,0,2.828
					c-0.001-0.718-0.002-1.437-0.002-2.155c0.808-0.104,1.616-0.208,2.424-0.313c-0.192-0.098-0.174-0.064,0.054,0.102
					c0.142,0.219,0.175,0.265,0.098,0.138c-0.075-0.13-0.052-0.076,0.07,0.162c0.027,0.306,0.044,0.347,0.053,0.123
					c0.094-1.045-0.987-2.045-2-2C808.434,561.784,807.698,562.612,807.598,563.732L807.598,563.732z"/>
			</g>
		</g>
		<g>
			<g>
				<path fill="#0D0E1F" d="M624.114,487.239c0.333,0.667,0.667,1.333,1,2c0.469,0.938,1.87,1.276,2.736,0.717
					c0.959-0.618,1.219-1.733,0.718-2.736c-0.333-0.667-0.667-1.333-1-2c-0.469-0.938-1.869-1.276-2.736-0.718
					C623.873,485.121,623.613,486.236,624.114,487.239L624.114,487.239z"/>
			</g>
		</g>
		<g>
			<g>
				<path fill="#0D0E1F" d="M657.98,486.959c-0.432,2.581-0.865,5.161-1.297,7.742c-0.422,2.518,3.432,3.6,3.857,1.063
					c0.432-2.581,0.865-5.161,1.297-7.742C662.259,485.505,658.405,484.422,657.98,486.959L657.98,486.959z"/>
			</g>
		</g>
		<g>
			<g>
				<path fill="#0D0E1F" d="M745.014,579.358c-10.448,10.041-25.34,10.083-38.936,9.914c-2.575-0.032-2.576,3.968,0,4
					c14.753,0.184,30.483-0.245,41.764-11.086C749.703,580.4,746.872,577.574,745.014,579.358L745.014,579.358z"/>
			</g>
		</g>
		<g>
			<g>
				<path fill="#0D0E1F" d="M506.464,471.904c14.528,8.419,31.015,11.565,47.629,9.305c2.539-0.345,1.458-4.2-1.063-3.857
					c-15.49,2.107-31.041-1.075-44.547-8.902C506.252,467.157,504.235,470.612,506.464,471.904L506.464,471.904z"/>
			</g>
		</g>
		<g>
			<g>
				<path fill="#0D0E1F" d="M597.741,538.624c-5.301,5.681-11.353,10.379-18.172,14.105c-2.26,1.235-0.243,4.69,2.019,3.454
					c7.1-3.879,13.462-8.815,18.981-14.73C602.324,539.572,599.502,536.737,597.741,538.624L597.741,538.624z"/>
			</g>
		</g>
		<path fill="none" stroke="#0D0E1F" stroke-width="5" stroke-miterlimit="10" d="M797.501,482.28c7.82-2.09,15.7-3.28,21.96-3.96
			c31.4-3.43,64.39,4.12,82.93,31.3c5.64,8.26,10.24,17.2,16.04,25.35c5.49,7.72,6.55,8.09,14.68,12.41
			c5.99,3.18,6.13,10.11,0.27,13.44c-5.71,3.24-8.95,4.65-13.379,9.839c-8.644,10.126-12.456,22.756-22.559,32.316
			c-24.436,23.123-65.998,32.501-96.342,15.495"/>
		<g>
			<g>
				<path fill="#0D0E1F" d="M823.757,617.648c1.146-0.008,2.232-0.602,2.778-1.627c0.313-0.587,0.423-1.442,0-2.019
					c-0.546-0.745-1.259-1.249-2.211-1.268c-0.883-0.018-1.786,0.417-2.256,1.179c-0.411,0.668-0.505,1.429-0.275,2.18
					c0.254,0.833,1.038,1.66,1.928,1.784c0.557,0.078,1.035,0.095,1.541-0.202c0.415-0.243,0.81-0.718,0.919-1.195
					c0.215-0.943-0.289-2.305-1.397-2.46c-0.335-0.061-0.175,0.046,0.479,0.321c0.451,0.48,0.516,1.039,0.195,1.676
					c-0.606,1.042-1.761,0.845-2.378,0.003c0-0.673,0-1.346,0-2.019c-0.147,0.276,0.038-0.042,0.142-0.13
					c0.147-0.124,0.334-0.223,0.533-0.225c-1.046,0.007-2.049,0.915-2,2C821.805,616.725,822.636,617.656,823.757,617.648
					L823.757,617.648z"/>
			</g>
		</g>
		<g>
			<g>
				<path fill="#0D0E1F" d="M831.091,608.147c2.574,0,2.578-4,0-4C828.517,604.147,828.513,608.147,831.091,608.147L831.091,608.147
					z"/>
			</g>
		</g>
		<g>
			<g>
				<path fill="#0D0E1F" d="M809.184,612.296c-1.864,3.907-1.065,8.743,2.397,11.514c0.808-1.047,1.616-2.094,2.424-3.141
					c-1.788-1.191-3.247-2.692-4.404-4.501c-1.382-2.163-4.846-0.159-3.454,2.019c1.537,2.405,3.464,4.354,5.839,5.936
					c1.862,1.24,4.209-1.712,2.424-3.141c-1.987-1.591-2.913-4.273-1.771-6.667C813.74,612.004,810.293,609.972,809.184,612.296
					L809.184,612.296z"/>
			</g>
		</g>
		<g>
			<g>
				<path fill="#0D0E1F" d="M801.147,491.811c0.151-3.558,1.916-6.803,4.864-8.818c2.112-1.444,0.114-4.912-2.019-3.454
					c-4.155,2.841-6.631,7.233-6.845,12.272C797.038,494.385,801.038,494.38,801.147,491.811L801.147,491.811z"/>
			</g>
		</g>
		<g>
			<g>
				<path fill="#0D0E1F" d="M840.925,508.147c2.574,0,2.578-4,0-4C838.351,504.147,838.346,508.147,840.925,508.147L840.925,508.147
					z"/>
			</g>
		</g>
		<g>
			<g>
				<path fill="#0D0E1F" d="M860.319,512.739c1.307,1.907,2.614,3.814,3.921,5.721c1.446,2.11,4.914,0.112,3.454-2.019
					c-1.307-1.907-2.614-3.814-3.921-5.721C862.327,508.61,858.859,510.608,860.319,512.739L860.319,512.739z"/>
			</g>
		</g>
		<g>
			<g>
				<path fill="#0D0E1F" d="M858.531,534.489c0.556,1,1.111,2,1.667,3c0.509,0.915,1.842,1.294,2.736,0.718
					c0.927-0.598,1.261-1.757,0.717-2.736c-0.556-1-1.111-2-1.667-3c-0.509-0.915-1.842-1.294-2.736-0.718
					C858.322,532.35,857.987,533.51,858.531,534.489L858.531,534.489z"/>
			</g>
		</g>
		<g>
			<g>
				<path fill="#0D0E1F" d="M886.198,548.823c1.111,1.444,2.222,2.889,3.333,4.333c0.657,0.855,1.72,1.312,2.736,0.717
					c0.841-0.492,1.38-1.875,0.718-2.736c-1.111-1.444-2.222-2.889-3.333-4.333c-0.657-0.855-1.72-1.312-2.736-0.717
					C886.074,546.578,885.535,547.961,886.198,548.823L886.198,548.823z"/>
			</g>
		</g>
		<path fill="none" stroke="#0D0E1F" stroke-width="5" stroke-miterlimit="10" d="M909.402,520.76c0,0,50.671-25.381,86.156-51.852
			c3.877-2.892,9.426-1.179,11.059,3.374c6.096,16.995,15.769,54.824-3.693,86.948c-26,42.917-88.693,67.418-121.347,55.501"/>
		<g>
			<g>
				<path fill="#0D0E1F" d="M886.888,612.044c1.042,3.041,3.682,5.09,6.872,5.395c1.281,0.122,1.272-1.878,0-2
					c-2.256-0.215-4.212-1.792-4.944-3.927C888.402,610.302,886.469,610.822,886.888,612.044L886.888,612.044z"/>
			</g>
		</g>
		<g>
			<g>
				<path fill="#0D0E1F" d="M886.708,614.799c0.458,0.169,0.915,0.337,1.373,0.506c0.507,0.187,1.096-0.209,1.23-0.698
					c0.153-0.558-0.19-1.043-0.698-1.23c-0.458-0.169-0.915-0.337-1.373-0.506c-0.507-0.187-1.096,0.209-1.23,0.698
					C885.856,614.127,886.199,614.612,886.708,614.799L886.708,614.799z"/>
			</g>
		</g>
		<g>
			<g>
				<path fill="#0D0E1F" d="M732.56,609.066c0.304,2.735,2.065,4.979,4.691,5.85c1.225,0.406,1.75-1.525,0.532-1.929
					c-1.709-0.566-3.022-2.115-3.223-3.921C734.419,607.801,732.417,607.786,732.56,609.066L732.56,609.066z"/>
			</g>
		</g>
		<g>
			<g>
				<path fill="#0D0E1F" d="M590.639,623.253c2.061,2.872,5.013,4.614,8.512,5.07c1.273,0.166,1.26-1.836,0-2
					c-2.731-0.356-5.182-1.846-6.785-4.079C591.622,621.207,589.886,622.204,590.639,623.253L590.639,623.253z"/>
			</g>
		</g>
		<g>
			<g>
				<path fill="#0D0E1F" d="M548.307,594.898c0.386,3.703-1.759,6.609-3.945,9.36c-0.793,0.997,0.613,2.422,1.414,1.414
					c2.506-3.153,4.973-6.534,4.531-10.774C550.175,593.631,548.174,593.618,548.307,594.898L548.307,594.898z"/>
			</g>
		</g>
		<g>
			<g>
				<path fill="#0D0E1F" d="M602.573,496.108c0.453-3.823,4.219-5.772,7.399-7.083c1-0.412,0.936-1.922-0.266-1.964
					c-3.044-0.108-5.815,1.447-7.334,4.082c-0.644,1.117,1.083,2.125,1.727,1.009c1.182-2.051,3.248-3.175,5.607-3.091
					c-0.089-0.655-0.177-1.31-0.266-1.964c-4.149,1.71-8.291,4.143-8.867,9.011C600.422,497.384,602.423,497.373,602.573,496.108
					L602.573,496.108z"/>
			</g>
		</g>
		<g>
			<g>
				<path fill="#0D0E1F" d="M548.322,393.84c2.75,6.235,12.023,4.506,16.341,1.235c1.013-0.767,0.018-2.505-1.009-1.727
					c-3.46,2.621-11.286,4.738-13.604-0.517C549.53,391.655,547.807,392.672,548.322,393.84L548.322,393.84z"/>
			</g>
		</g>
		<g>
			<g>
				<path fill="#0D0E1F" d="M515.178,409.792c5.494-0.433,10.267-3.225,13.32-7.818c0.624-0.938-0.817-2.065-1.571-1.212
					c-3.078,3.485-6.748,6.16-11.002,8.035c-1.175,0.518-0.159,2.242,1.009,1.727c4.398-1.939,8.225-4.745,11.406-8.348
					c-0.523-0.404-1.047-0.808-1.571-1.212c-2.64,3.973-6.834,6.453-11.593,6.828C513.903,407.892,513.892,409.893,515.178,409.792
					L515.178,409.792z"/>
			</g>
		</g>
		<g>
			<g>
				<path fill="#0D0E1F" d="M644.817,479.076c-1.428,2.056-3.329,3.637-5.572,4.736c-1.156,0.567-0.143,2.292,1.009,1.727
					c2.556-1.253,4.668-3.12,6.29-5.454C647.28,479.026,645.547,478.025,644.817,479.076L644.817,479.076z"/>
			</g>
		</g>
		<g>
			<g>
				<path fill="#0D0E1F" d="M976.709,518.446c-1.134-3.492-0.782-7.94,2.923-9.768c4.068-2.007,7.291,1.125,9.146,4.433
					c1.635,2.915,2.778,6.508,1.66,9.818c-1.398,4.14-6.976,6.709-9.644,2.138c-1.297-2.222-4.755-0.211-3.454,2.019
					c2.799,4.795,9.103,5.818,13.387,2.296c5.146-4.232,4.84-11.489,2.175-17.013c-2.58-5.348-7.605-10.01-13.896-7.746
					c-6.193,2.229-8.038,9.082-6.153,14.887C973.644,521.948,977.507,520.905,976.709,518.446L976.709,518.446z"/>
			</g>
		</g>
		<g>
			<g>
				<path fill="#0D0E1F" d="M946.178,537.484c-1.511-4.552-1.05-10.082,3.498-12.77c5.489-3.244,10.149,0.863,12.782,5.468
					c2.37,4.145,3.805,9.143,1.878,13.736c-2.225,5.303-9.487,8.121-12.911,2.111c-1.274-2.237-4.731-0.223-3.454,2.019
					c3.313,5.816,11.063,7.058,16.214,2.797c6.431-5.32,5.882-14.428,2.483-21.269c-3.267-6.575-9.531-12.24-17.263-9.159
					c-7.315,2.916-9.393,11.175-7.084,18.129C943.128,540.978,946.992,539.936,946.178,537.484L946.178,537.484z"/>
			</g>
		</g>
		<g>
			<g>
				<path fill="#0D0E1F" d="M933.141,559.55c0.476,3.658,0.045,7.38-2.572,10.197c-2.702,2.907-7.044,3.263-10.024,0.549
					c-1.9-1.73-4.737,1.091-2.828,2.828c3.872,3.527,9.631,4.111,13.941,0.965c4.6-3.358,6.193-9.088,5.483-14.54
					C936.813,557.033,932.809,557.001,933.141,559.55L933.141,559.55z"/>
			</g>
		</g>
		<g>
			<g>
				<g>
					<path fill="#0D0E1F" d="M927.495,593.192c-8.265,2.805-16.862,4.571-25.531,5.47l0.168,1.742l0.168,1.742
						c8.939-0.925,17.793-2.748,26.303-5.634c0,0,0.491-0.165,1.383-0.465c0.9-0.28,2.165-0.796,3.747-1.404
						c3.164-1.214,7.478-3.132,12.117-5.644c4.646-2.497,9.591-5.641,14.044-9.125c4.47-3.46,8.453-7.223,11.48-10.589
						c-3.624,2.725-7.973,5.933-12.648,8.936c-4.658,3.026-9.652,5.814-14.281,8.056c-4.621,2.257-8.853,4.021-11.949,5.15
						c-1.548,0.565-2.781,1.055-3.657,1.319C927.972,593.034,927.495,593.192,927.495,593.192z"/>
				</g>
			</g>
		</g>
		<g>
			<g>
				<g>
					<path fill="#0D0E1F" d="M1003.888,458.879c-1.306,2.511-2.797,4.922-4.419,7.239l1.429,1.01l1.429,1.01
						c1.713-2.444,3.284-4.988,4.661-7.635c0,0,1.317-2.429,2.443-5.754c1.163-3.308,1.991-7.525,1.805-10.607
						c-1.521,2.687-3.132,6.447-4.637,9.442C1005.13,456.59,1003.888,458.879,1003.888,458.879z"/>
				</g>
			</g>
		</g>
		<g>
			<g>
				<path fill="#0D0E1F" d="M916.037,530.327c5.093-2.252,9.855-5.045,14.305-8.392c1.524-1.146,0.031-3.752-1.514-2.59
					c-4.451,3.347-9.212,6.14-14.305,8.392C912.761,528.515,914.286,531.101,916.037,530.327L916.037,530.327z"/>
			</g>
		</g>
		<g>
			<g>
				<path fill="#0D0E1F" d="M936.258,518.313c1.93,0,1.934-3,0-3C934.328,515.313,934.324,518.313,936.258,518.313L936.258,518.313z
					"/>
			</g>
		</g>
		<g>
			<g>
				<path fill="#0D0E1F" d="M943.258,514.147c1.93,0,1.934-3,0-3C941.328,511.147,941.324,514.147,943.258,514.147L943.258,514.147z
					"/>
			</g>
		</g>
		<g>
			<g>
				<path fill="#0D0E1F" d="M882.258,545.313c1.93,0,1.934-3,0-3C880.328,542.313,880.324,545.313,882.258,545.313L882.258,545.313z
					"/>
			</g>
		</g>
		<g>
			<g>
				<path fill="#0D0E1F" d="M865.925,546.313c1.93,0,1.934-3,0-3C863.994,543.313,863.991,546.313,865.925,546.313L865.925,546.313z
					"/>
			</g>
		</g>
		<path fill="none" stroke="#0D0E1F" stroke-width="4" stroke-miterlimit="10" d="M489.353,484.951
			c1.411-3.534,4.008-6.581,7.273-8.536s7.178-2.803,10.959-2.378"/>
		<path fill="none" stroke="#0D0E1F" stroke-width="4" stroke-miterlimit="10" d="M460.337,477.951
			c0.705-4.279,2.724-8.298,7.267-10.315c4.589-2.038,10.218-1.223,14.396,1.222c3.86,2.26,7.152,6.112,9.276,10.855"/>
		<path fill="none" stroke="#0D0E1F" stroke-width="4" stroke-miterlimit="10" d="M483.111,470.386
			c2.262-3.549,5.698-6.335,9.638-7.814c3.94-1.479,8.361-1.641,12.399-0.456"/>
		<path fill="none" stroke="#0D0E1F" stroke-width="4" stroke-miterlimit="10" d="M600.845,465.398
			c10.028-3.19,21.844,0.361,28.452,8.551"/>
		<path fill="none" stroke="#0D0E1F" stroke-width="4" stroke-miterlimit="10" d="M703.203,494.767
			c6.208-7.429,16.945-10.724,26.251-8.056"/>
		<path fill="none" stroke="#0D0E1F" stroke-width="4" stroke-miterlimit="10" d="M647.091,472.144
			c5.654-1.073,11.67-0.125,16.721,2.633s9.1,7.308,11.253,12.645"/>
		<path fill="none" stroke="#0D0E1F" stroke-width="4" stroke-miterlimit="10" d="M711.374,488.055
			c-7.774-15.775-30.95-16.342-41.362-8.474"/>
		<path fill="none" stroke="#0D0E1F" stroke-width="4" stroke-miterlimit="10" d="M901.149,506.888
			c3.748-2.911,8.718-4.196,13.407-3.465c4.69,0.731,9.033,3.466,11.718,7.38"/>
		<path fill="none" stroke="#0D0E1F" stroke-width="4" stroke-miterlimit="10" d="M921.439,505.573
			c1.133-4.923,5.171-9.059,10.065-10.311s10.422,0.44,13.778,4.215"/>
		<path fill="none" stroke="#0D0E1F" stroke-width="4" stroke-miterlimit="10" d="M797.036,466.813
			c4.881-1.632,10.311-1.569,15.154,0.173c4.843,1.743,9.067,5.155,11.789,9.523"/>
		<path fill="none" stroke="#0D0E1F" stroke-width="4" stroke-miterlimit="10" d="M820.607,471.492
			c3.767-3.839,9.649-5.457,14.85-4.085s9.519,5.681,10.903,10.879"/>
		<g>
			<g>
				<g>
					<path fill="#0D0E1F" d="M603.583,481.812l-1.623,3.811l1.073,0.457l1.073,0.457l1.623-3.811c0,0,1.995-4.684,2.025-7.73
						C605.578,477.127,603.583,481.812,603.583,481.812z"/>
				</g>
			</g>
		</g>
		<g>
			<g>
				<g>
					<path fill="#0D0E1F" d="M656.793,472.897l0.086-1.074l-1.163-0.093l-1.163-0.093l-0.086,1.075c0,0-0.106,1.321,0.999,2.143
						C656.688,474.218,656.793,472.897,656.793,472.897z"/>
				</g>
			</g>
		</g>
		<g>
			<g>
				<g>
					<path fill="#0D0E1F" d="M663.186,475.904c-0.047-0.719-0.064-1.44-0.057-2.161l-1.167-0.013l-1.167-0.013
						c-0.007,0.779,0.011,1.558,0.062,2.335c0,0,0.04,0.72,0.291,1.611c0.245,0.89,0.72,1.938,1.449,2.566
						c0.414-0.868,0.528-1.937,0.579-2.801C663.222,476.565,663.186,475.904,663.186,475.904z"/>
				</g>
			</g>
		</g>
		<g>
			<g>
				<g>
					<path fill="#0D0E1F" d="M689.65,476.9l-0.173-1.547l-1.159,0.13l-1.159,0.13l0.173,1.547c0,0,0.212,1.902,1.489,2.823
						C689.863,478.802,689.65,476.9,689.65,476.9z"/>
				</g>
			</g>
		</g>
		<g>
			<g>
				<g>
					<path fill="#0D0E1F" d="M808.468,467.785l0.095-1.033l-1.162-0.107l-1.162-0.107l-0.095,1.033c0,0-0.117,1.27,0.98,2.079
						C808.351,469.055,808.468,467.785,808.468,467.785z"/>
				</g>
			</g>
		</g>
		<g>
			<g>
				<g>
					<path fill="#0D0E1F" d="M832.952,468.614l-0.229-0.917l-1.132,0.283l-1.132,0.283l0.229,0.917c0,0,0.282,1.127,1.569,1.467
						C833.234,469.741,832.952,468.614,832.952,468.614z"/>
				</g>
			</g>
		</g>
		<g>
			<g>
				<g>
					<path fill="#0D0E1F" d="M931.25,497.237c-0.224-0.349-0.435-0.706-0.635-1.069l-1.022,0.562l-1.022,0.562
						c0.225,0.408,0.462,0.81,0.714,1.202c0,0,0.23,0.366,0.665,0.728c0.431,0.363,1.071,0.708,1.806,0.678
						c0.16-0.719,0.024-1.369-0.139-1.856C931.452,497.559,931.25,497.237,931.25,497.237z"/>
				</g>
			</g>
		</g>
		<g>
			<g>
				<g>
					<path fill="#0D0E1F" d="M915.257,505.66c-0.003-0.443,0.018-0.885,0.057-1.326l-1.162-0.106l-1.162-0.106
						c-0.046,0.515-0.07,1.032-0.067,1.548c0,0-0.003,0.481,0.186,1.073c0.184,0.591,0.575,1.281,1.24,1.652
						c0.482-0.589,0.684-1.261,0.796-1.797C915.254,506.064,915.257,505.66,915.257,505.66z"/>
				</g>
			</g>
		</g>
	</g>
	<g display="inline">
		<path fill="none" stroke="#0D0E1F" stroke-width="5" stroke-linecap="round" stroke-miterlimit="10" d="M451.971,668.48
			c12.4,0,12.4,12,24.799,12c12.4,0,12.4-12,24.799-12c12.4,0,12.4,12,24.8,12c12.4,0,12.4-12,24.801-12
			c12.402,0,12.402,12,24.803,12c12.401,0,12.401-12,24.801-12c12.401,0,12.401,12,24.802,12c12.401,0,12.401-12,24.802-12
			c12.401,0,12.401,12,24.802,12c12.401,0,12.401-12,24.803-12c12.401,0,12.401,12,24.803,12c12.399,0,12.399-12,24.799-12
			c12.401,0,12.401,12,24.801,12c12.401,0,12.401-12,24.802-12c12.402,0,12.402,12,24.805,12c12.403,0,12.403-12,24.805-12
			c12.402,0,12.402,12,24.805,12c12.403,0,12.403-12,24.806-12c12.405,0,12.405,12,24.81,12s12.405-12,24.81-12"/>
	</g>
	<path display="inline" fill="none" stroke="#0D0E1F" stroke-width="4" stroke-miterlimit="10" d="M883.244,490.872
		c-0.418-2.31-0.336-6.884,0.428-9.104s3.14-4.073,5.389-3.4c1.534,0.46,2.599,1.925,4.125,2.413
		c2.122,0.678,4.399-0.788,5.63-2.644s1.773-4.08,2.787-6.063c1.863-3.643,5.778-6.488,9.84-6.004c4.063,0.484,7.38,5.19,5.62,8.883
		c-1.221,2.562-4.126,3.75-6.685,4.977c-2.559,1.227-5.292,3.154-5.456,5.987c-0.13,2.243,1.448,4.224,3.17,5.668
		c1.722,1.443,3.717,2.644,4.979,4.503c1.261,1.86,0.549,5.717-1.196,7.133"/>
	<path display="inline" fill="none" stroke="#0D0E1F" stroke-width="4" stroke-miterlimit="10" d="M500,596.17
		c-2.018,1.363-5.627,3.964-7.12,5.888c-1.493,1.924-2.359,4.499-1.663,6.833c0.827,2.775,3.671,4.555,6.529,5.027
		c2.857,0.471,5.77-0.109,8.62-0.62c2.851-0.511,8.047,0.054,10.847,0.794"/>
	<path display="inline" fill="none" stroke="#0D0E1F" stroke-width="4" stroke-miterlimit="10" d="M536.354,617.632
		c2.442,0.796,4.392,2.64,6.088,4.568c1.696,1.929,3.253,4.02,5.299,5.572c2.046,1.553,4.741,2.517,7.205,1.795
		c1.674-0.491,3.033-1.682,4.454-2.694c1.421-1.013,3.104-1.902,4.83-1.646"/>
	<g display="inline">
		<g>
			<g>
				<path fill="#0D0E1F" d="M508.35,604.675c1.661-0.139,3.318-0.325,4.97-0.548l-0.158-1.156l-0.158-1.156
					c-1.612,0.218-3.23,0.4-4.851,0.535c0,0-1.492,0.135-3.399,0.372c-1.908,0.246-4.235,0.566-5.921,1.124
					c1.669,0.608,4.057,0.872,6.02,0.915C506.818,604.814,508.35,604.675,508.35,604.675z"/>
			</g>
		</g>
	</g>
	<g display="inline">
		<g>
			<g>
				<path fill="#0D0E1F" d="M552.224,615.817c1.176-0.927,2.464-1.705,3.81-2.35l-0.496-1.056l-0.496-1.056
					c-1.507,0.72-2.941,1.59-4.251,2.621c0,0-1.246,0.926-2.478,2.45c-1.258,1.497-2.369,3.642-2.6,5.341
					c1.267-1.154,2.738-2.767,4.085-3.94C551.117,616.637,552.224,615.817,552.224,615.817z"/>
			</g>
		</g>
	</g>
	<g display="inline">
		<g>
			<g>
				<path fill="#0D0E1F" d="M893.23,493.305c-0.597,0.658-1.488,1.042-2.292,1.004l-0.06,1.165l-0.06,1.165
					c1.606,0.067,3.1-0.639,4.122-1.747c0,0,0.254-0.245,0.555-0.739c0.298-0.485,0.638-1.261,0.668-2.171
					c0.022-0.875-0.175-1.595-0.181-2.176c0.004-0.562,0.166-1.22,0.777-1.535c-0.306-0.15-0.773-0.106-1.157,0.129
					c-0.388,0.23-0.709,0.596-0.92,1.046c-0.397,0.899-0.393,1.771-0.547,2.296c-0.133,0.502-0.37,0.887-0.564,1.154
					C893.378,493.162,893.23,493.305,893.23,493.305z"/>
			</g>
		</g>
	</g>
</g>
<g id="Layer_4">
	<path fill="#C2CE2F" d="M1148.209,582.036H251.791V336.772c0-21.348,17.306-38.653,38.653-38.653h819.112
		c21.348,0,38.653,17.306,38.653,38.653V582.036z"/>
</g>
<g id="Layer_3">
	<path fill="#C62A36" d="M1090.586,508.226c8.046-4.389,17.193-9.476,26.984-15.092c-4.975-4.334-12.133-6.14-18.546-4.502
		c-0.383,0.098-0.76,0.214-1.136,0.336c0.127,0.24,0.31,0.617,0.479,1.115c0.28,0.838,0.514,1.956,0.239,3.192
		c-1.265,0.052-2.365-0.542-3.107-1.166c-0.747-0.622-1.144-1.252-1.144-1.252c-0.054-0.084-0.099-0.172-0.152-0.256
		c-4.507,2.566-8.058,6.851-9.607,11.8C1086.833,504.088,1088.844,506.05,1090.586,508.226z"/>
	<path fill="#EF9D1B" d="M492.77,584.15c1.76-0.96,3.5-1.97,5.2-3.01c8.78-5.36,16.76-11.73,23.98-19.11
		c1.85-39.68,2.68-80.29,2.68-114.78c0-6.66,0-13.36-0.14-20.01c0,0,0,0,0-0.01c-0.85-40.51-6.9-79.29-49.78-98.47
		c-8.64-3.87-17.77-5.77-27.13-5.77c-19.63,0-40.24,8.37-59.33,24.57c-22.19,18.84-22.43,60.95-21.68,66.29
		c1.05,7.45,2.69,16.15,4.86,25.85c23.01,13.07,49.4,18.37,75.69,14.79c4.33-0.59,6.19,6.04,1.83,6.63
		c-26.14,3.56-52.09-0.69-75.45-12.52c10.15,42.25,28.75,100.09,50.6,156.29c12.66,32.57,24.11,58.71,33.99,78.77
		c16.36,33.23,28.41,49.79,34.58,51.28c0.62,0.15,1.41,0.17,2.63-0.79c13.93-10.96,22.11-83.49,26.15-162.04
		c-7.2,6.57-15.09,12.29-23.62,17.1c-0.53,0.31-1.06,0.6-1.59,0.89C492.35,592.22,488.88,586.28,492.77,584.15z M472.74,351.5
		c4.43,0,4.43,6.88,0,6.88C468.3,358.38,468.31,351.5,472.74,351.5z M464.14,372.71c-4.44,0-4.43-6.88,0-6.88
		S468.57,372.71,464.14,372.71z M459.26,349.78c4.44,0,4.43,6.88,0,6.88S454.84,349.78,459.26,349.78z M475.61,698.41
		c-4.44,0-4.43-6.88,0-6.88S480.03,698.41,475.61,698.41z M474.46,674.32c4.43,0,4.43,6.88,0,6.88c-2.51,0-3.6-2.2-3.27-4.11
		c0.23-1.38,1.21-2.61,2.93-2.75C474.23,674.32,474.34,674.32,474.46,674.32z"/>
	<path fill="#48A146" d="M697.65,487.75c-1.1,7.57-3.06,15.21-8.64,18.78c-4.59,2.94-11.54,2.64-17.71-0.76
		c-6.18-3.42-11.08-9.14-15.81-14.67l-4.5-5.26l-2.72,6.37c-5.2,12.17-10.58,24.75-19.54,34.39c-4.99,5.36-12.27,10.52-20.42,12.48
		c-3.97,0.96-8.14,1.15-12.36,0.24c-7.09-1.53-14.07-6.33-19.65-13.52c-5.32-6.86-9-15.15-12.31-23.05l-2.08-4.98l-4.39,3.14
		c-7.34,5.26-18.72,4.01-24.89-2.56c0.1-4.76,0.19-9.42,0.27-13.93c1.61-4.46,6.09-7.16,10.4-9.09c6.97-0.9,16.1-1.9,26.7-2.63
		c0.37,0.74,0.74,1.49,1.12,2.24c0.32,0.64,0.9,1.12,1.57,1.4c1,0.43,2.23,0.41,3.13-0.17c1.41-0.9,1.93-2.42,1.53-3.92
		c14.94-0.79,32.18-0.96,50.04,0.36c-0.66,3.91-1.31,7.82-1.97,11.72c-0.72,4.34,5.91,6.2,6.64,1.83c0.72-4.32,1.45-8.65,2.17-12.97
		C655.79,475.24,677.89,479.6,697.65,487.75z"/>
	<path fill="#C48769" d="M599.815,462.835c0.976-0.75,1.901-1.558,2.755-2.448c-0.23-4.121-0.186-9.931,0.271-18.202
		c0.687-12.43,2.188-27.003,3.571-34.65c0.527-2.917,0.531-6.828-2.439-8.895c-3.262-2.271-8.899-1.647-14.365,1.58
		c-11.102,6.556-8.896,40.717-4.653,62.898C589.739,462.943,594.704,462.84,599.815,462.835z"/>
	<path fill="#C62A36" d="M710.39,647.02c22.94,0.28,48.02,0.21,65.93-16.09c1.8-9.25,2.45-19.05,1.8-29.31
		c-2.8-44.11-28.49-85.97-65.47-106.66c-2.24-1.25-4.53-2.44-6.86-3.57c-1.49,8.72-4.37,17.4-12.14,22.38
		c-8.75,5.61-19.43,3.43-26.51-0.48c-5.36-2.96-9.78-7.16-13.67-11.43c-4.63,10.54-10.13,21.66-18.43,30.6
		c-9.54,10.25-21.92,16.03-33.69,16.03c-2.44,0-4.86-0.25-7.22-0.76c-9.06-1.96-17.81-7.87-24.62-16.66
		c-4.93-6.35-8.48-13.51-11.56-20.57c-8.12,3.55-17.91,2.88-25.58-1.51c-0.78,30.83-2.16,65.23-4.33,96.85
		c-0.31,4.49-0.63,8.83-0.95,13.02c-3.2,41.42-7.18,68.5-11.12,86.34c1.39,1.55,3.05,2.82,4.89,3.77
		c33.53,4.91,141.34,17.64,202.46-10.66c6.25-2.89,12.01-6.21,17.15-10.01c16.07-11.88,27.28-27.86,33.15-46.63
		c-18.37,11.98-41.42,12.5-63.23,12.23C705.96,653.84,705.96,646.96,710.39,647.02z M714.14,508.04c4.44,0,4.43,6.88,0,6.88
		S709.72,508.04,714.14,508.04z M531.94,699.84c-4.43,0-4.42-6.88,0-6.88C536.38,692.96,536.37,699.84,531.94,699.84z
		 M535.81,678.77c-4.43,0-4.42-6.88,0-6.88C540.25,671.89,540.24,678.77,535.81,678.77z M550.01,697.69c-4.44,0-4.43-6.88,0-6.88
		S554.43,697.69,550.01,697.69z"/>
	<path fill="#C2CE2F" d="M534.079,462.16c0,0,3.433-8.058,7.176-11.724c-0.05,5.239-3.483,13.297-3.483,13.297l-1.64,3.85
		c8.648-1.297,22.847-3.098,40.154-4.067c-0.642-3.522-1.467-8.59-2.146-14.424c-10.008-10.966-26.476-16.041-40.933-12.651
		c0.023,3.629,0.026,7.24,0.026,10.813c0,5.228-0.026,10.96-0.08,17.078L534.079,462.16z"/>
	<path fill="#48A146" d="M374.631,673.085c-1.455,0.162-2.913,0.306-4.372,0.428c0,0-2.637,0.238-6.016,0.149
		c-3.377-0.074-7.485-0.528-10.356-1.574c2.901-0.961,6.905-1.511,10.186-1.934c3.281-0.408,5.847-0.64,5.847-0.64
		c0.592-0.049,1.181-0.116,1.772-0.172c-4.344-4.313-10.271-5.886-15.956-6.162c-3.74,2.649-7.705,5.791-9.374,7.941
		c-1.698,2.189-3.19,5.614-2.281,8.662c1.047,3.513,5.02,5.663,8.493,6.234c4.071,0.672,8.356-0.101,12.891-0.919l0.77-0.139
		c3.572-0.64,8.661-0.418,13.143,0.146c-0.08-0.254-0.168-0.503-0.248-0.757C377.842,680.258,376.598,676.361,374.631,673.085z"/>
	<path fill="#6DB46B" d="M279.743,506.461c-0.17-0.207-0.695-0.833-1.61-0.318c-0.884,0.497-0.627,1.241-0.543,1.487
		c10.075,29.261,36.61,73.928,149.213,127.152c-3.93-9.526-7.552-18.629-10.721-26.778c-1.565-4.025-3.11-8.06-4.641-12.098
		C398.537,591.538,329.352,566.043,279.743,506.461z"/>
	<path fill="#C2CE2F" d="M431.74,646.57c-4.12-1.89-8.12-3.77-12.02-5.64l-1.11,2.95c0,0-3.24,8.66-7.86,12.4
		c-1.02-5.85,2.22-14.51,2.22-14.51l1.3-3.47c-13.59-6.64-25.91-13.16-37.05-19.54l-7.96,3.89c0,0-9.66,4.72-17.07,5.67
		c-0.59,0.09-1.16,0.14-1.71,0.16c0.46-0.54,0.98-1.08,1.54-1.6c5.37-5.13,14.59-9.64,14.59-9.64l4.36-2.13
		c-4.34-2.56-8.49-5.11-12.47-7.63c-4.63-2.93-9.01-5.83-13.16-8.7c-7.62-5.25-14.47-10.38-20.64-15.4l0.28,0.67l-10.21,4.14
		c0,0-12.54,5.08-20.6,5.1c5.8-5.6,18.34-10.68,18.34-10.68l7.57-3.07c-15.26-12.97-26.01-25.07-33.76-36.13
		c-4.37,0.48-8.73,1.03-13.09,1.66c0,0-4.52,0.64-10.33,1.27c-5.81,0.61-12.92,1.28-18.21,0.92c4.63-2.58,11.54-4.75,17.31-6.11
		c5.77-1.39,10.37-2.04,10.37-2.04c3.39-0.49,6.8-0.92,10.21-1.33c-6.4-10.12-10.35-19.29-13.12-27.35
		c-1.58-4.57,0.26-9.42,4.45-11.78c4.22-2.38,9.34-1.43,12.44,2.31c4.32,5.19,8.82,10.11,13.42,14.78l2.21-4.46
		c0,0,4.23-8.52,9.27-11.88c0.36,6.04-3.87,14.56-3.87,14.56l-3.11,6.25c8.37,8.09,17.03,15.36,25.67,21.87
		c0.17-0.65,0.33-1.31,0.52-1.96c0,0,0.61-2.13,2-4.59c1.35-2.46,3.58-5.16,6.05-6.37c0.12,2.75-0.6,5.83-1.16,8.32
		c-0.59,2.48-1.12,4.36-1.12,4.36c-0.41,1.36-0.74,2.74-1.02,4.13c6.36,4.59,12.66,8.76,18.79,12.54
		c11.78,7.29,22.87,13.11,32.32,17.62l-0.35-1.99c0,0-1.45-8.18,0.72-13.23c3.76,4,5.21,12.18,5.21,12.18l1.08,6.12
		c5.76,2.58,10.68,4.59,14.47,6.06c-8.03-21.66-15.48-43.23-22.06-63.76c-4.79,1.75-9.81,2.06-14.72,1.03
		c-7.39-1.55-14.52-6.16-20.18-13.51c-4.81-6.26-7.02-13.63-9.15-20.76c-0.85-2.86-1.66-5.57-2.63-8.2
		c-2.87-7.84-8.79-16.38-16.75-16.83c-3.22-0.2-6.62,0.95-10.23,2.16c-4.16,1.39-8.47,2.84-13.27,2.61
		c-12.33-0.59-20.2-11.24-26.61-21.18c-4.94-7.66-11.68-16.42-20.06-16.02c-7.09,0.32-11.85,6.63-17.35,13.94
		c-5.32,7.05-10.81,14.34-19.44,17.28c-8.52,2.9-17.32,0.42-25.07-1.77l-2.37-0.66c-9.67-2.66-16.38-2.3-20.52,1.08
		c-3.14,2.58-3.79,6.27-3.78,8.91c0.03,5.75,3.13,12.1,7.71,15.78c6.79,5.46,15.59,7.67,24.9,10c2.42,0.6,4.83,1.21,7.2,1.87
		c16.69,4.66,27.07,12.56,30.84,23.5c4.12,11.97-0.93,24.12-5.39,34.84c-0.54,1.28-1.06,2.55-1.57,3.8
		c-2.02,5-7.89,21.91,1.25,29.79c4.93,4.24,12.43,4.28,20.37,4.31c9.33,0.05,18.98,0.1,26.26,6.83c9.21,8.5,8.35,22.11,6.58,33.02
		c-1.43,8.78-3.21,19.71,2.15,26.48c3.21,4.05,9.03,6.45,15.98,6.61c2.41,0.05,4.79-0.14,7.17-0.5c6.25-0.94,12.45-3.08,18.92-5.31
		c3.83-1.32,7.8-2.69,11.8-3.8c4.46-1.24,8.78-1.97,12.89-2.21c12.42-0.78,22.89,2.88,29.22,10.54c4.12,4.97,5.99,10.89,7.79,16.62
		c0.49,1.56,0.98,3.11,1.52,4.63c1.82,5.18,5.16,11.69,10.72,13.27c8.81,2.51,17.28-8.38,19.67-11.78c0.7-1,1.39-2.02,2.1-3.05
		c3.71-5.43,7.79-11.37,13.4-15.36c1.63-2.29,3.03-4.69,3.77-7.32C436.2,656.95,433.93,651.73,431.74,646.57z M370.67,543.3
		c4.44,0,4.43,6.88,0,6.88S366.25,543.3,370.67,543.3z M255.42,452.42c3.32,0,3.32,5.16,0,5.16
		C252.09,457.58,252.1,452.42,255.42,452.42z M264.45,573.83c-3.33,0-3.32-5.16,0-5.16C267.78,568.67,267.77,573.83,264.45,573.83z
		 M274.63,584.59c-4.44,0-4.43-6.89,0-6.89S279.05,584.59,274.63,584.59z M307.05,654.81c-0.55,0.53-1.32,0.88-2.32,0.88
		c-4.43,0-4.43-6.88,0-6.88c1.8,0,2.87,1.13,3.21,2.47C308.25,652.51,307.95,653.92,307.05,654.81z"/>
	<path fill="#48A146" d="M448.155,314.248c0.631-2.382,1.24-4.771,1.794-7.172c0,0,0.718-3.029,1.867-6.86
		c1.164-3.83,2.713-8.481,4.707-11.715c0.986,3.669,0.903,8.685,0.459,12.75c-0.43,4.07-1.167,7.185-1.167,7.185
		c-0.465,2.014-0.967,4.019-1.485,6.02c3.01-0.432,6.033-1.504,8.491-2.836c5.309-14.348,9.863-33.919,4.408-41.479
		c-0.722-1.002-2.927-4.051-10.498-3.319c-2.79,0.271-5.099,1.577-7.06,3.997c-6.804,8.397-7.555,27.371-7.034,39.449
		C443.954,312.406,445.897,313.664,448.155,314.248z"/>
	<path fill="#48A146" d="M341.628,466.933c2.006,2.945,3.755,6.345,5.159,10.172c1.058,2.884,1.943,5.841,2.798,8.7
		c1.995,6.674,3.879,12.977,7.725,17.982c5.55,7.217,15.265,13.521,25.466,9.503c-6.986-22.261-12.88-43.103-17.285-61.226
		c-4.779,0.021-9.524,1.305-13.634,3.766C347.465,458.46,343.892,462.355,341.628,466.933z"/>
	<path fill="#F9E530" d="M309.003,457.243c4.217-1.412,8.572-2.87,13.448-2.595c5.255,0.299,10.195,2.645,14.433,6.652
		c0.284-0.465,0.596-0.911,0.902-1.362l-0.039,0.018c-3.362-7.507-8.531-13.583-14.555-17.11c-6.806-3.984-15.293-4.74-21.63-1.929
		c-5.731,2.546-9.264,7.646-10.501,15.16l-0.64-0.105c2.577,1.994,5.377,3.296,8.452,3.442
		C302.066,459.566,305.435,458.437,309.003,457.243z"/>
	<path fill="#48A146" d="M410.134,323.129c3.652-1.707,7.322-3.17,10.997-4.381c-2.941-12.521-6.131-24.978-9.633-37.345
		c0,0-3.317-11.936-7.782-27.129c-4.433-15.191-10.15-33.691-12.831-47.277c5.544,12.655,12.662,30.598,17.849,45.672
		c5.212,15.054,8.558,27.096,8.558,27.096c3.499,12.355,6.685,24.795,9.624,37.286c2.478-0.64,4.956-1.169,7.429-1.581
		c-0.504-6.568-1.189-21.985,1.972-35.114c-2.036-23.066-11.96-83.791-34.277-97.286c-5.413-3.273-11.22-3.529-17.749-0.78
		c-7.555,3.18-12.546,8.453-15.26,16.122c-9.618,27.179,13.039,73.422,16.838,80.855
		C399.224,287.45,407.166,310.542,410.134,323.129z"/>
	<path fill="#C62A36" d="M342.618,454.273c1.743-1.639,3.643-3.113,5.704-4.347c4.709-2.82,10.085-4.437,15.548-4.721
		c-1.159-5.023-2.191-9.806-3.085-14.318c-5.387-0.992-11.018-0.529-16.155,1.398c-4.78,1.794-9.046,4.826-12.359,8.692
		C336.344,444.528,339.882,449.059,342.618,454.273z"/>
	<path fill="#48A146" d="M390.501,332.711c0.374-0.236,0.745-0.475,1.112-0.72l-4.16-8.878c0,0-7.384-15.759-8.738-25.745
		c6.806,7.431,14.19,23.19,14.19,23.19l3.622,7.73c1.713-1.451,3.342-3.017,4.888-4.696c-3.688-14.893-12.238-34.528-22.365-38.139
		c-3.76-1.344-7.649-0.235-11.9,3.377c-2.813,2.391-4.24,5.382-4.362,9.143c-0.373,11.428,11.113,27.132,19.616,36.802
		C385.25,334.508,387.973,333.811,390.501,332.711z"/>
	<path fill="#48A146" d="M460.21,706.5c-1.6,0.7-3,1.59-4.13,2.4c-0.49,0.35-0.98,0.71-1.47,1.07c-1.76,1.31-3.43,2.55-5.16,3.06
		c-2.72,0.8-6.22-0.15-9.35-2.53c-2.42-1.83-4.45-4.23-6.61-6.78c-0.66-0.78-1.33-1.56-2-2.33c-1.83-2.08-4.11-4.44-6.89-6.31
		c0.56-0.73,1.12-1.47,1.67-2.25c0.72-1.03,1.44-2.08,2.17-3.14c0.04-0.06,0.08-0.11,0.12-0.17c4.41-6.47,9-13.09,15.46-15.26
		c1.78,3.84,3.58,7.63,5.39,11.34c-2.17,1.12-4.24,2.41-6.15,3.91c0,0-2.14,1.6-4.26,4.22c-0.97,1.16-1.89,2.53-2.64,3.96
		c-0.93,1.76-1.61,3.61-1.83,5.23c1.1-1,2.28-2.2,3.48-3.39c1.19-1.2,2.39-2.39,3.54-3.39c2.28-2.05,4.18-3.46,4.18-3.46
		c1.7-1.34,3.55-2.46,5.46-3.45c1.48,2.98,2.96,5.89,4.44,8.73C457.16,700.89,458.69,703.75,460.21,706.5z"/>
	<path fill="#48A146" d="M1082.725,616.571c4.667,2.023,10.145,0.834,13.841-3.144c2.751-2.961,4.087-6.506,4.531-10.25
		c-0.386,0.216-0.776,0.434-1.15,0.642C1092.823,607.79,1088.355,610.283,1082.725,616.571z"/>
	<path fill="#EF9D1B" d="M716.854,487.458c6.403,3.582,12.482,7.766,18.198,12.448c4.314-8.641,7.904-17.633,11.009-26.823
		c-12.657-2.281-26.452,1.981-35.598,11.017C712.625,485.17,714.759,486.286,716.854,487.458z"/>
	<path fill="#48A146" d="M1231.64,476.35c-2.6-12.02-5.78-22.08-8.3-29.13c-0.89-2.46-2.82-4.3-5.31-5.05
		c-2.45-0.74-5.04-0.29-7.1,1.24c-15.33,11.44-32.36,22.79-49.27,33.37c-23,14.39-45.77,27.37-63.72,37.22
		c-14.56,8-25.95,13.92-31.72,16.89c1.8,2.98,3.62,5.98,5.49,8.96c7.3-3.44,14.22-7.51,20.73-12.31c0.38-0.26,0.75-0.54,1.13-0.82
		c2.66-1.99,5.23,2.49,2.61,4.46c-2.68,2.01-5.42,3.9-8.23,5.66c-4.32,2.73-8.8,5.18-13.43,7.37c1.35,2.09,2.73,4.15,4.15,6.16
		c0.17,0.25,0.35,0.5,0.52,0.74c8.49,11.94,9.79,12.63,22.2,19.21l1.57,0.83c6.27,3.33,10.07,9.04,10.16,15.27
		c0.06,4.41-1.78,8.59-5.03,11.88c0.48,8.62-2.42,17.32-9.65,22.6c-6.09,4.44-13.86,4.55-20.13,1.09
		c-4.66,6.17-8.52,12.78-12.56,19.72c-1.03,1.77-2.06,3.55-3.12,5.33c-3.11,5.24-6.4,10.49-10.22,15.54
		c13.2-1.67,26.26-4.54,38.87-8.82c0,0,0.82-0.27,2.31-0.77c1.51-0.45,3.63-1.3,6.29-2.27c5.33-1.94,12.61-4.97,20.56-8.86
		c7.74-3.74,16.07-8.38,23.89-13.42c0.22-0.14,0.45-0.29,0.67-0.43c8.05-5.17,15.53-10.69,21.76-15.38c-3.15,3.5-6.91,7.26-11.08,11
		c-0.01,0-0.01,0-0.02,0.01c-2.72,2.44-5.62,4.87-8.65,7.21c-7.66,5.99-16.16,11.4-24.16,15.7c-7.98,4.32-15.4,7.62-20.84,9.71
		c-2.72,1.04-4.9,1.93-6.45,2.41c-1.53,0.52-2.38,0.8-2.38,0.8c-14.63,4.96-29.87,8.1-45.24,9.69l-0.1-1.01
		c-1.67,1.9-3.41,3.77-5.3,5.56c-5.26,4.98-10.88,9.53-16.76,13.67c0.8,1.24,1.85,2.3,3.08,3.09
		c56.1,8.34,148.26-30.95,188.49-97.36c2.49-4.12,4.7-8.3,6.63-12.52C1240.7,544.22,1237.8,504.8,1231.64,476.35z M1106.35,524.95
		c-3.32,0-3.32-5.16,0-5.16C1109.68,519.79,1109.67,524.95,1106.35,524.95z M1118.39,512.62c3.33,0,3.32,5.16,0,5.16
		S1115.07,512.62,1118.39,512.62z M1154.39,580.91c-8.86,7.33-22.19,5.2-27.89-4.81c-2.2-3.86,3.75-7.32,5.94-3.47
		c5.89,10.34,18.38,5.49,22.21-3.63c3.32-7.9,0.85-16.5-3.23-23.63c-4.53-7.93-12.54-14.99-21.99-9.41
		c-7.82,4.62-8.61,14.14-6.01,21.97c1.4,4.22-5.25,6.01-6.64,1.83c-3.97-11.96-0.4-26.17,12.19-31.19
		c13.3-5.3,24.07,4.45,29.69,15.76C1164.51,556.09,1165.45,571.76,1154.39,580.91z M1200.05,543.99c-7.37,6.06-18.21,4.3-23.03-3.95
		c-2.24-3.83,3.71-7.29,5.94-3.47c4.59,7.86,14.19,3.44,16.59-3.68c1.93-5.69-0.04-11.87-2.85-16.89
		c-3.19-5.69-8.74-11.08-15.74-7.62c-6.37,3.14-6.97,10.79-5.02,16.8c1.37,4.23-5.28,6.02-6.64,1.83
		c-3.24-9.99-0.07-21.77,10.59-25.61c10.82-3.89,19.46,4.12,23.9,13.32C1208.37,524.23,1208.9,536.71,1200.05,543.99z"/>
	<path fill="#F9E530" d="M1098.92,578.75l-1.56-0.83c-13.3-7.06-15.77-8.6-25.18-21.82c-5.45-7.66-10.33-15.77-15.05-23.62
		c-4.01-6.67-8.16-13.57-12.59-20.06c-26.97-39.55-77.21-58.51-137.9-52.07c-0.01,0-0.01,0-0.01,0c-0.24,0.03-0.49,0.05-0.73,0.08
		c-8.17,0.89-15.96,2.07-23.3,3.51c-0.1,0.08-0.19,0.17-0.3,0.25c-5.07,3.47-8.11,9.05-8.37,15.17c0,0.17-0.04,0.32-0.07,0.48
		c0.66,3.33,1.52,6.61,2.65,9.84c0.38,1.09,0.79,2.17,1.24,3.23c5.24,12.69,14.39,23.73,24.02,35.36
		c9.36,11.29,19.04,22.96,24.99,36.48c15.31,34.72,9.36,76.89-11.51,105.87c-6.16,8.56-13.63,15.96-22.23,21.69
		c-0.63,3.48,0.91,7,3.73,9.25c0.39,0.32,0.66,0.68,0.84,1.06c17.16,5.21,35.86,6.54,54.53,4.24c30.61-3.76,61.12-17.27,84.5-39.39
		c9.33-8.83,15.34-19.16,21.7-30.09c4.93-8.48,10.04-17.26,16.8-25.17c7.15-8.39,12.81-11.54,20.64-15.9
		c1.12-0.62,2.28-1.28,3.52-1.98c3.37-1.91,5.28-4.75,5.24-7.79C1104.47,583.45,1102.43,580.61,1098.92,578.75z M917.61,693.03
		c-0.18,0.32-0.41,0.59-0.64,0.86c-0.21,0.8-0.86,1.58-1.55,1.99c-0.87,0.51-1.7,0.48-2.65,0.35c-1.54-0.22-2.88-1.64-3.32-3.07
		c-0.4-1.3-0.24-2.61,0.47-3.75c0.81-1.32,2.36-2.06,3.88-2.03c1.64,0.03,2.87,0.9,3.81,2.18
		C918.33,690.55,918.14,692.02,917.61,693.03z M925.44,679.48c-4.43,0-4.42-6.88,0-6.88C929.88,672.6,929.87,679.48,925.44,679.48z
		 M942.36,507.46c-4.44,0-4.43-6.88,0-6.88S946.79,507.46,942.36,507.46z M980.22,559.17c-1.54,0.99-3.83,0.34-4.71-1.23
		c-0.95-1.72-1.91-3.44-2.87-5.16c-0.93-1.69-0.36-3.68,1.24-4.71c1.54-0.99,3.83-0.34,4.71,1.23c0.95,1.72,1.91,3.44,2.86,5.17
		C982.39,556.15,981.81,558.14,980.22,559.17z M985.36,573.12c-3.32,0-3.32-5.16,0-5.16C988.69,567.96,988.68,573.12,985.36,573.12z
		 M982.47,525.2c-2.25-3.28-4.5-6.56-6.75-9.84c-2.51-3.66,3.45-7.1,5.94-3.47c2.25,3.28,4.5,6.56,6.75,9.84
		C990.92,525.4,984.95,528.83,982.47,525.2z M1013.46,571.4c-3.33,0-3.32-5.16,0-5.16C1016.79,566.24,1016.78,571.4,1013.46,571.4z
		 M1030.68,586.12c-1.75,1.02-3.58,0.24-4.71-1.23c-1.91-2.49-3.82-4.97-5.73-7.46c-1.14-1.48-0.22-3.86,1.23-4.7
		c1.75-1.03,3.58-0.24,4.71,1.23c1.91,2.49,3.82,4.97,5.73,7.46C1033.05,582.9,1032.13,585.28,1030.68,586.12z"/>
	<path fill="#EF9D1B" d="M945.863,451.177c-3.087-5.037-8.122-8.972-13.787-10.467c-1.102-0.291-2.23-0.48-3.368-0.591
		c0.002,0.702-0.189,1.843-1.258,2.835c-2.215-0.584-2.699-2.523-2.699-2.523l-0.088-0.353c-4.735,0.377-9.389,2.191-13.045,5.163
		c1.594,1.774,3.041,3.682,4.325,5.708C926.246,450.311,936.241,450.391,945.863,451.177z"/>
	<path fill="#C48769" d="M821.311,368.027c3.24-7.725,6.716-15.472,10.352-23.047c0.25-0.518,0.123-0.968,0.025-1.189
		c-0.104-0.238-0.321-0.548-0.754-0.679c-3.135-0.945-6.348-1.756-9.552-2.412c-0.269-0.055-1.026-0.211-1.403-0.211
		c-0.144,0.17-0.443,0.619-0.9,1.773c-3.152,7.96-4.567,16.603-4.172,25.156C817.111,367.532,819.233,367.751,821.311,368.027z"/>
	<path fill="#48A146" d="M1029.842,483.451c0.925-0.265,1.82-0.777,2.494-1.52c0,0,0.255-0.245,0.59-0.702
		c0.334-0.46,0.741-1.122,0.97-1.985c0.264-0.903,0.258-2.403,0.941-3.95c0.363-0.773,0.916-1.404,1.583-1.799
		c0.659-0.404,1.463-0.479,1.99-0.222c-1.051,0.542-1.33,1.674-1.336,2.641c0.01,0.999,0.349,2.237,0.311,3.742
		c-0.053,1.565-0.637,2.9-1.15,3.734c-0.519,0.849-0.955,1.272-0.955,1.272c-0.61,0.661-1.323,1.232-2.102,1.7
		c4.842,4.395,9.311,9.18,13.392,14.332c4.865-3.028,10.554-4.79,16.293-5.087c1.232-1.84,1.733-5.518,0.759-6.954
		c-1.273-1.878-3.251-3.395-5.345-5.001c-0.872-0.67-1.744-1.341-2.58-2.041c-4.621-3.871-6.931-8.223-6.679-12.586
		c0.306-5.302,4.119-9.743,11.333-13.202l1.152-0.547c3.771-1.783,7.334-3.466,8.727-6.391c1.082-2.27,0.168-4.56-0.474-5.723
		c-1.393-2.528-3.943-4.358-6.495-4.663c-5.641-0.659-11.042,3.755-13.458,8.478c-0.63,1.234-1.157,2.566-1.715,3.977
		c-0.892,2.255-1.814,4.587-3.274,6.788c-2.708,4.081-8.114,7.68-13.601,5.922c-1.844-0.59-3.261-1.648-4.51-2.581
		c-0.91-0.681-1.771-1.325-2.525-1.55c-1.925-0.577-4.284,1.501-5.03,3.671c-0.88,2.56-1.139,7.821-0.867,11.599
		C1022.318,477.474,1026.176,480.359,1029.842,483.451z"/>
	<path fill="#F9E530" d="M871.761,457.5c10.178-2.438,21.317-4.329,33.21-5.621c1-0.109,1.989-0.192,2.984-0.288
		c-4.189-5.298-9.808-9.398-16.191-11.696c-1.737-0.625-3.518-1.094-5.32-1.445c-0.17,0.683-0.689,2.042-2.229,2.789
		c-1.527-1.125-1.684-2.751-1.69-3.339c-3.724-0.313-7.485-0.051-11.141,0.78c0.105,3.347,0.158,6.685,0.206,10
		C871.635,451.654,871.68,454.593,871.761,457.5z"/>
	<path fill="#C2CE2F" d="M924.05,583.9c-1.26-5.48-2.98-10.75-5.16-15.68c-5.47-12.42-14.76-23.63-23.74-34.47
		c-10.47-12.63-21.3-25.69-26.75-41.22c-4.97-14.18-5.19-29.2-5.41-43.72c-0.24-16.08-0.46-31.27-6.56-45.44
		c-7.96-18.49-23.08-27.47-46.21-27.47c-20.67,0-34.07,12.64-39.83,37.56c4.78,4.49,10.34,7.87,16.63,9.98
		c4.18,1.41,2.38,8.05-1.83,6.64c-6.07-2.05-11.62-5.07-16.53-9.02c-6.48,28.57-13.22,58.04-26.95,84.69
		c22.87,21.43,38.75,51.29,43.66,83.1c0.62,4.05,1.07,8.13,1.33,12.23c2.01,31.7-7.69,60.46-26.99,81.44c0.51,1.6,1.52,3,2.85,4.01
		c27.81,10.19,79.54,23.61,119.94,2.1C919.75,668.78,932.69,621.37,924.05,583.9z M890.18,579.85c4.43,0,4.43,6.89,0,6.89
		C885.74,586.74,885.75,579.85,890.18,579.85z M885.03,603.08c0.17-1.92,1.44-3.35,3.44-3.44c0.93-0.04,1.89,0.44,2.56,1.17
		c0.42,0.16,0.8,0.41,1.11,0.75c1.62,1.77,1.64,4.25-0.01,6.02c-1.12,1.21-2.78,1.13-4.17,0.54
		C886.12,607.32,884.85,605.06,885.03,603.08z M879,591.9c4.43,0,4.42,6.88,0,6.88C874.56,598.78,874.57,591.9,879,591.9z
		 M804.17,429.77c4.43,0,4.42,6.88,0,6.88C799.73,436.65,799.74,429.77,804.17,429.77z"/>
	<path fill="#48A146" d="M703.892,481.043c3.225-3.574,7.031-6.596,11.224-8.987c-5.125-8.595-13.937-14.726-25.123-17.379
		c-2.589-0.614-5.236-1.025-7.891-1.251l0.032,0.287c0,0,0.365,3.271-1.427,5.302c-2.196-1.585-2.562-4.856-2.562-4.856
		l-0.103-0.919c-9.033-0.116-17.857,1.923-24.532,5.809c2.129,2.687,3.966,5.601,5.465,8.71
		C674.431,470.581,689.721,474.837,703.892,481.043z"/>
	<path fill="#EF9D1B" d="M1051.648,507.573c3.554,5.207,6.893,10.605,10.122,15.938c4.297-2.204,12.275-6.345,22.667-11.949
		c-3.696-4.195-8.764-7.213-14.207-8.459c0,0.027-0.004,0.054-0.003,0.081c0,0-0.005,0.696-0.19,1.615
		c-0.193,0.921-0.541,2.077-1.37,3.09c-1.144-0.638-1.818-1.825-2.134-2.842c-0.325-1.019-0.32-1.845-0.32-1.845
		c-0.001-0.232,0.025-0.463,0.03-0.694c-5.379-0.352-10.896,0.982-15.539,3.737C1051.015,506.69,1051.341,507.123,1051.648,507.573z
		"/>
	<path fill="#F9E530" d="M650.254,466.309c-3.466-5.274-8.183-9.766-13.624-12.869c-0.004,0.353-0.014,0.748-0.037,1.179
		c-0.088,1.486-0.285,3.326-0.996,4.819c-1.253-1.079-2.071-2.882-2.492-4.413c-0.432-1.532-0.501-2.771-0.501-2.771
		c-0.018-0.273-0.009-0.547-0.022-0.821c-2.529-1.068-5.184-1.854-7.894-2.387c-0.327,0.425-0.758,0.835-1.358,1.148
		c-0.633-0.471-1.021-1.036-1.275-1.582c-3.631-0.472-7.311-0.452-10.904,0.071c-0.218,6.253-0.177,11.47,0.224,14.306
		C623.926,463.345,637.083,464.347,650.254,466.309z"/>
	<path fill="#397C37" d="M1173.443,528.09c-1.529-3.719-1.982-8.065-0.315-11.725c1.667-3.66,5.803-6.311,9.733-5.454
		c2.81,0.613,4.998,2.775,6.861,4.966c2.281,2.681,4.357,5.598,5.592,8.895s1.572,7.021,0.389,10.337
		c-1.183,3.315-4.038,6.118-7.506,6.721C1181.157,543.054,1175.658,533.478,1173.443,528.09z"/>
	<path fill="#397C37" d="M1120.921,546.023c-0.974-2.993,0.787-6.398,3.687-8.028c2.9-1.63,6.656-1.639,9.827-0.513
		c6.755,2.399,11.6,8.194,14.676,14.469c2.908,5.934,5.623,14.136,4.491,20.819c-0.316,1.865-1.008,3.735-2.392,5.129
		c-2.093,2.108-5.424,2.791-8.528,2.727c-8.198-0.167-15.825-4.896-20.13-11.31c-4.305-6.414-5.55-14.287-4.682-21.781"/>
	<path fill="#397C37" d="M1091.28,653.76c-12.61,4.28-25.67,7.15-38.87,8.82c3.82-5.05,7.11-10.3,10.22-15.54
		c15.14,0.35,30.42-1.98,45.09-5.89c12.5-3.34,24.64-7.79,36.61-12.71c-7.82,5.04-16.15,9.68-23.89,13.42
		c-7.95,3.89-15.23,6.92-20.56,8.86c-2.66,0.97-4.78,1.82-6.29,2.27C1092.1,653.49,1091.28,653.76,1091.28,653.76z"/>
	<path fill="#397C37" d="M1223.98,580.59c-1.93,4.22-4.14,8.4-6.63,12.52c-40.23,66.41-132.39,105.7-188.49,97.36
		c-1.23-0.79-2.28-1.85-3.08-3.09c5.88-4.14,11.5-8.69,16.76-13.67c1.89-1.79,3.63-3.66,5.3-5.56l0.1,1.01
		c15.37-1.59,30.61-4.73,45.24-9.69c0,0,0.85-0.28,2.38-0.8c1.55-0.48,3.73-1.37,6.45-2.41c5.44-2.09,12.86-5.39,20.84-9.71
		c8-4.3,16.5-9.71,24.16-15.7c3.03-2.34,5.93-4.77,8.65-7.21c0.01-0.01,0.01-0.01,0.02-0.01c5.21-2.26,10.39-4.58,15.57-6.89
		c12.97-5.79,26.16-11.72,36.78-21.14C1213.32,590.92,1218.46,585.2,1223.98,580.59z"/>
	<path fill="#FFFFFF" d="M1231.64,476.35c-2.09-4.56-4.19-9.11-6.28-13.67c-2.22-4.83-5.44-10.38-10.75-10.62
		c-3.06-0.14-5.85,1.63-8.44,3.28c-13.93,8.85-28.91,16.05-44.51,21.44c16.91-10.58,33.94-21.93,49.27-33.37
		c2.06-1.53,4.65-1.98,7.1-1.24c2.49,0.75,4.42,2.59,5.31,5.05C1225.86,454.27,1229.04,464.33,1231.64,476.35z"/>
	<circle fill="#91C790" cx="1127.768" cy="550.362" r="2.768"/>
	<circle fill="#91C790" cx="1181.485" cy="517.968" r="2.768"/>
	<path fill="#397C37" d="M1074.52,544.21c4.63-2.19,9.11-4.64,13.43-7.37c-2.89,5.47-6.08,10.48-9.28,13.53
		C1077.25,548.36,1075.87,546.3,1074.52,544.21z"/>
	<path fill="#397C37" d="M1097.94,514c-1.19,3.2-3.11,8.18-5.5,13.54c-6.51,4.8-13.43,8.87-20.73,12.31
		c-1.87-2.98-3.69-5.98-5.49-8.96C1071.99,527.92,1083.38,522,1097.94,514z"/>
	<path fill="#BBAC24" d="M952.12,706.86c-18.67,2.3-37.37,0.97-54.53-4.24c-0.18-0.38-0.45-0.74-0.84-1.06
		c-2.82-2.25-4.36-5.77-3.73-9.25c8.6-5.73,16.07-13.13,22.23-21.69c6.32,10.65,14.86,19.97,24.96,27.14
		C944.16,700.56,948.6,703.47,952.12,706.86z"/>
	<path fill="#BBAC24" d="M906.63,460.35c-12.56,7.68-22.79,19.17-28.88,32.56c-0.45-1.06-0.86-2.14-1.24-3.23
		c-1.13-3.23-1.99-6.51-2.65-9.84c0.03-0.16,0.07-0.31,0.07-0.48c0.26-6.12,3.3-11.7,8.37-15.17c0.11-0.08,0.2-0.17,0.3-0.25
		c7.34-1.44,15.13-2.62,23.3-3.51C906.14,460.4,906.39,460.38,906.63,460.35z"/>
	<path fill="#929B23" d="M882.5,688.63c-40.4,21.51-92.13,8.09-119.94-2.1c-1.33-1.01-2.34-2.41-2.85-4.01
		c19.3-20.98,29-49.74,26.99-81.44c-0.26-4.1-0.71-8.18-1.33-12.23c2.47,8.17,3.43,17.09,3.89,25.58
		c0.92,17.17,1.07,35.6,11.02,49.62c11.25,15.84,33.3,21.73,52.15,17.05c18.86-4.69,34.52-18.4,45.26-34.58
		c10.75-16.19,17.15-34.83,22.9-53.39c0.95-3.05,2.03-6.27,3.46-9.23C932.69,621.37,919.75,668.78,882.5,688.63z"/>
	<path opacity="0.8" fill="#991A2A" d="M723.32,698.31c-61.12,28.3-168.93,15.57-202.46,10.66c-1.84-0.95-3.5-2.22-4.89-3.77
		c3.94-17.84,7.92-44.92,11.12-86.34c4.13,14.03,11.54,27.2,21.28,38.14c18.15,20.39,43.67,33.38,70.31,39.32s54.42,5.2,81.42,1.2
		C707.8,696.38,716.55,695.3,723.32,698.31z"/>
	<path fill="#FFFFFF" d="M1010.714,500.764c-1.45,1.668-1.121,4.321,0.08,6.177c1.745,2.694,4.791,4.341,7.076,6.527
		c1.765,1.688,4,6.19,5.986,7.213c2.96,1.526,2.802,1.133,3.582-2.635C1028.825,511.337,1017.687,492.744,1010.714,500.764z"/>
	<path fill="#FFFFFF" d="M845.465,405.476c1.37,2.755,1.999,6.014,1.041,8.937c-0.521,1.589-1.637,3.122-3.259,3.528
		c-1.341,0.335-2.766-0.167-3.917-0.932c-3.358-2.233-4.813-6.374-5.898-10.258c-1.032-3.695-6.761-11.547-0.573-12.963
		C837.92,392.63,843.564,401.651,845.465,405.476z"/>
	<path fill="#FFFFFF" d="M742.594,541.839c1.956,2.748,3.75,5.718,4.709,9.071s1.006,7.153-0.43,10.283
		c-1.436,3.129-4.53,5.384-7.636,4.967c-3.469-0.466-6.077-3.995-7.149-7.739c-1.072-3.744-0.969-7.763-1.227-11.686
		c-0.23-3.503-0.766-6.969-1.569-10.363c-0.557-2.356-1.409-4.292,1.204-4.98C735.147,530.167,740.213,538.495,742.594,541.839z"/>
	<path fill="#FFFFFF" d="M393.208,359.62c-2.131,1.84-3.563,4.343-4.89,6.826c-1.842,3.447-3.591,7.041-4.094,10.917
		c-0.503,3.876,0.428,8.13,3.278,10.804c2.851,2.674,7.818,3.153,10.603,0.41c2.109-2.077,2.534-5.306,2.487-8.265
		s-0.434-6.005,0.494-8.816c0.807-2.446,2.554-4.512,3.251-6.992C406.501,356.804,397.586,355.841,393.208,359.62z"/>
	<path fill="#C98523" d="M497.83,589.21c8.53-4.81,16.42-10.53,23.62-17.1c-4.04,78.55-12.22,151.08-26.15,162.04
		c-1.22,0.96-2.01,0.94-2.63,0.79c-6.17-1.49-18.22-18.05-34.58-51.28c4.96-1.05,9.3-3.35,13.1-6.57c1.01-0.85,1.99-1.77,2.93-2.75
		C493.61,653.94,497.19,607.87,497.83,589.21z"/>
	<path fill="#C98523" d="M524.63,447.25c0,34.49-0.83,75.1-2.68,114.78c-7.22,7.38-15.2,13.75-23.98,19.11
		c10.36-12.14,24.95-139.91,26.52-153.9C524.63,433.89,524.63,440.59,524.63,447.25z"/>
	<path fill="#929B23" d="M407.45,585.27c-3.79-1.47-8.71-3.48-14.47-6.06l-1.08-6.12c0,0-1.45-8.18-5.21-12.18
		c-2.17,5.05-0.72,13.23-0.72,13.23l0.35,1.99c-9.45-4.51-20.54-10.33-32.32-17.62c15.44-5.86,16.67-35.97,16.67-35.97
		c4.91,1.03,9.93,0.72,14.72-1.03C391.97,542.04,399.42,563.61,407.45,585.27z"/>
	<path fill="#C2CE2F" d="M352.02,626.88c-1.49-11.55-4.75-22.36-6.68-28.1c7.72,5.33,16.24,10.78,25.63,16.33l-4.36,2.13
		C366.61,617.24,357.39,621.75,352.02,626.88z"/>
	<path fill="#929B23" d="M438.51,662.15c-0.74,2.63-2.14,5.03-3.77,7.32c-5.61,3.99-9.69,9.93-13.4,15.36
		c-0.71,1.03-1.4,2.05-2.1,3.05c-2.39,3.4-10.86,14.29-19.67,11.78c-5.56-1.58-8.9-8.09-10.72-13.27c-0.54-1.52-1.03-3.07-1.52-4.63
		c-1.8-5.73-3.67-11.65-7.79-16.62c-6.33-7.66-16.8-11.32-29.22-10.54c-4.11,0.24-8.43,0.97-12.89,2.21c-4,1.11-7.97,2.48-11.8,3.8
		c-6.47,2.23-12.67,4.37-18.92,5.31c-0.53-3.69-0.4-7.45,0.34-11.11c0.23-1.19,0.53-2.37,0.89-3.53c1.89-6.1,5.46-11.69,10.38-15.79
		c6.87-5.73,15.71-8.44,23.44-12.95c6.53-3.81,12.23-8.99,16.74-15.06c3.98,2.52,8.13,5.07,12.47,7.63l-4.36,2.13
		c0,0-9.22,4.51-14.59,9.64c-0.56,0.52-1.08,1.06-1.54,1.6c0.55-0.02,1.12-0.07,1.71-0.16c7.41-0.95,17.07-5.67,17.07-5.67
		l7.96-3.89c11.14,6.38,23.46,12.9,37.05,19.54l-1.3,3.47c0,0-3.24,8.66-2.22,14.51c4.62-3.74,7.86-12.4,7.86-12.4l1.11-2.95
		c3.9,1.87,7.9,3.75,12.02,5.64C433.93,651.73,436.2,656.95,438.51,662.15z"/>
	<path fill="#FFFFFF" d="M374.881,205.726c0.179,1.273,1.158,2.517,2.441,2.588c0.913,0.05,1.778-0.494,2.346-1.211
		s0.892-1.592,1.208-2.45c0.899-2.448,3.935-7.344-0.74-7.046C376.746,197.823,374.46,202.752,374.881,205.726z"/>
	<path fill="#397C37" d="M439,693.73c-0.97,1.16-1.89,2.53-2.64,3.96c-0.26-0.32-0.52-0.65-0.78-0.97c-2.1-2.64-4.17-5.49-7.02-7.2
		c4.41-6.47,9-13.09,15.46-15.26c1.78,3.84,3.58,7.63,5.39,11.34c-2.17,1.12-4.24,2.41-6.15,3.91
		C443.26,689.51,441.12,691.11,439,693.73z"/>
	<path fill="#397C37" d="M455.63,697.96c-0.63,0.98-1.36,1.89-2.22,2.68c-2.33,2.17-5.62,3.42-8.76,2.86
		c-2.6-0.47-4.76-2.05-6.64-3.97c1.19-1.2,2.39-2.39,3.54-3.39c2.28-2.05,4.18-3.46,4.18-3.46c1.7-1.34,3.55-2.46,5.46-3.45
		C452.67,692.21,454.15,695.12,455.63,697.96z"/>
	<path fill="#397C37" d="M608.31,539.08c-3.97,0.96-8.14,1.15-12.36,0.24c-7.09-1.53-14.07-6.33-19.65-13.52
		c-5.32-6.86-9-15.15-12.31-23.05l-2.08-4.98l-4.39,3.14c-7.34,5.26-18.72,4.01-24.89-2.56c0.1-4.76,0.19-9.42,0.27-13.93
		c1.61-4.46,6.09-7.16,10.4-9.09c6.97-0.9,16.1-1.9,26.7-2.63c0.37,0.74,0.74,1.49,1.12,2.24c0.32,0.64,0.9,1.12,1.57,1.4
		c-1.5,3.24-1.42,7.26,0.74,10.09c2.26,2.96,6.33,4.24,8.26,7.43c3.02,5.01-0.77,11.36-0.45,17.2c0.4,7.02,6.6,12.18,12.58,15.89
		C599.22,530.31,605.24,533.65,608.31,539.08z"/>
	<g>
		<path fill="#FFFFFF" d="M231.981,461.023c0,0,0.042,0.151,0.094,0.436c0.06,0.286,0.095,0.705,0.068,1.232
			c-0.051,1.042-0.484,2.549-1.615,3.788c-1.126,1.243-2.616,1.847-3.691,1.997c-0.54,0.084-0.981,0.087-1.285,0.054
			c-0.303-0.027-0.466-0.055-0.466-0.055s0.134-0.129,0.363-0.349c0.228-0.205,0.535-0.52,0.87-0.879
			c0.686-0.72,1.401-1.653,2.217-2.539c0.813-0.889,1.669-1.669,2.328-2.394c0.325-0.355,0.614-0.677,0.8-0.914
			C231.864,461.162,231.981,461.023,231.981,461.023z"/>
	</g>
	<g>
		<path fill="#FFFFFF" d="M348.521,435.492c0,0-0.427,0.279-1.045,0.661c-0.625,0.385-1.412,0.887-2.303,1.359
			c-0.892,0.472-1.773,0.853-2.458,1.179c-0.702,0.326-1.168,0.543-1.168,0.543s-0.057-0.621,0.225-1.487
			c0.27-0.858,0.958-1.957,2.123-2.578c1.165-0.621,2.446-0.572,3.293-0.32C348.05,435.101,348.521,435.492,348.521,435.492z"/>
	</g>
	<g>
		<path fill="#FFFFFF" d="M310.735,446.206c0,0-0.142,0.057-0.394,0.158c-0.249,0.089-0.603,0.24-1.018,0.418
			c-0.836,0.362-1.886,0.895-3.013,1.52c-1.127,0.623-2.168,1.246-2.932,1.8c-0.764,0.544-1.268,0.961-1.268,0.961
			s-0.015-0.174-0.005-0.49c0.006-0.318,0.065-0.767,0.228-1.3c0.308-1.059,1.168-2.458,2.648-3.284
			c1.48-0.826,3.103-0.814,4.146-0.525c0.53,0.142,0.935,0.324,1.202,0.485C310.599,446.102,310.735,446.206,310.735,446.206z"/>
	</g>
	<g>
		<path fill="#FFFFFF" d="M590.82,423.069c0,0-0.122-0.177-0.342-0.495c-0.22-0.322-0.501-0.811-0.797-1.449
			c-0.586-1.268-1.162-3.2-1.098-5.413c0.059-2.212,0.746-4.166,1.432-5.447c0.34-0.646,0.663-1.141,0.911-1.467
			c0.248-0.321,0.388-0.502,0.388-0.502s-0.03,3.483-0.065,7.441c-0.057,1.905-0.203,3.662-0.282,5.032
			c-0.041,0.691-0.075,1.26-0.099,1.659C590.838,422.837,590.82,423.069,590.82,423.069z"/>
	</g>
	<g>
		<path fill="#FFFFFF" d="M703.407,467.039c0,0-0.551-0.283-1.364-0.716c-0.795-0.421-1.87-0.991-3.066-1.624
			c-1.182-0.661-2.273-1.271-3.088-1.726c-0.856-0.465-1.414-0.768-1.414-0.768s0.628-0.359,1.708-0.533
			c1.067-0.181,2.619-0.105,4.04,0.668c1.421,0.774,2.308,2.027,2.725,3.004C703.375,466.331,703.407,467.039,703.407,467.039z"/>
	</g>
	<g>
		<path fill="#FFFFFF" d="M734.291,477.321c0,0-0.745,0.331-1.936,0.86c-1.179,0.527-2.743,1.273-4.461,2.127
			c-1.719,0.852-3.302,1.671-4.467,2.335c-1.173,0.674-1.922,1.105-1.922,1.105s0.256-0.892,1.043-2.108
			c0.775-1.21,2.16-2.722,4.109-3.696c1.949-0.973,3.965-1.162,5.371-1.055c0.709,0.052,1.275,0.157,1.664,0.26
			C734.081,477.247,734.291,477.321,734.291,477.321z"/>
	</g>
	<g>
		<path fill="#FFFFFF" d="M1150.944,491.586c0,0-0.473,0.912-1.496,2.237c-1.02,1.318-2.636,3.033-4.81,4.479
			c-2.173,1.449-4.434,2.315-6.108,2.764c-1.677,0.455-2.764,0.552-2.764,0.552s0.862-0.728,2.202-1.762
			c1.347-1.034,3.125-2.403,5.141-3.739c2.015-1.338,3.941-2.427,5.398-3.239C1149.958,492.069,1150.944,491.586,1150.944,491.586z"
			/>
	</g>
	<g>
		<path fill="#FFFFFF" d="M1052.221,490.616c0,0-0.156-0.478-0.418-1.114c-0.264-0.644-0.655-1.41-1.071-2.238
			c-0.415-0.828-0.808-1.623-1.197-2.228c-0.378-0.603-0.701-1.02-0.701-1.02s0.141-0.043,0.403-0.081
			c0.263-0.042,0.642-0.051,1.098,0.033c0.904,0.147,2.132,0.815,2.766,2.066c0.636,1.251,0.444,2.62,0.035,3.422
			c-0.201,0.411-0.428,0.704-0.616,0.888C1052.337,490.53,1052.221,490.616,1052.221,490.616z"/>
	</g>
	<g>
		<path fill="#FFFFFF" d="M783.417,487.112c0,0,0.913-2.542,3.03-4.935c2.117-2.393,4.636-3.732,4.636-3.732
			s-0.495,3.075-2.612,5.468C786.355,486.307,783.417,487.112,783.417,487.112z"/>
	</g>
	<g>
		<path fill="#FFFFFF" d="M784.763,495.072c0,0,0.18-0.492,0.491-1.19c0.313-0.703,0.73-1.608,1.292-2.535
			c0.562-0.926,1.187-1.739,1.67-2.371c0.484-0.627,0.84-1.046,0.84-1.046s0.298,0.562,0.423,1.473
			c0.131,0.902,0.041,2.177-0.636,3.299c-0.678,1.122-1.756,1.781-2.602,2.076C785.388,495.081,784.763,495.072,784.763,495.072z"/>
	</g>
	<g>
		<path fill="#FFFFFF" d="M994.203,652.602c0,0-1.216-0.299-3.11-1.06c-1.889-0.76-4.453-2.023-7.012-3.912
			c-2.56-1.887-4.588-4.014-5.922-5.658c-1.34-1.644-2.032-2.78-2.032-2.78s1.175,0.674,2.93,1.793
			c1.756,1.124,4.105,2.647,6.545,4.453c2.441,1.805,4.552,3.583,6.104,4.918C993.253,651.689,994.203,652.602,994.203,652.602z"/>
	</g>
	<g>
		<path fill="#FFFFFF" d="M998.195,645.224c0,0-2.402-0.313-4.791-1.793c-2.388-1.481-3.859-3.569-3.859-3.569
			s2.845-0.198,5.233,1.283C997.167,642.625,998.195,645.224,998.195,645.224z"/>
	</g>
	<g>
		<path fill="#FFFFFF" d="M580.64,603.302c0,0-2.218-1.085-4.068-3.286c-1.85-2.201-2.632-4.685-2.632-4.685s2.8,0.74,4.65,2.941
			C580.44,600.473,580.64,603.302,580.64,603.302z"/>
	</g>
	<g>
		<path fill="#FFFFFF" d="M600.51,612.227c0,0-1.102-0.436-2.761-1.427c-1.653-0.989-3.854-2.584-5.882-4.819
			c-2.031-2.232-3.459-4.633-4.316-6.444c-0.864-1.813-1.22-3.02-1.22-3.02s0.939,0.88,2.322,2.268
			c1.383,1.395,3.236,3.247,5.14,5.35c1.904,2.102,3.54,4.102,4.758,5.597C599.763,611.224,600.51,612.227,600.51,612.227z"/>
	</g>
</g>
<g id="Layer_2_copy">
	<g>
		<path fill="#200900" d="M264.449,568.673c-3.321,0-3.326,5.161,0,5.161C267.77,573.834,267.776,568.673,264.449,568.673z"/>
		<path fill="#200900" d="M274.627,577.704c-4.427,0-4.435,6.881,0,6.881C279.055,584.585,279.062,577.704,274.627,577.704z"/>
		<path fill="#200900" d="M304.731,648.807c-4.427,0-4.435,6.881,0,6.881C309.159,655.687,309.166,648.807,304.731,648.807z"/>
		<path fill="#200900" d="M370.673,550.181c4.427,0,4.435-6.881,0-6.881C366.245,543.3,366.238,550.181,370.673,550.181z"/>
		<path fill="#200900" d="M255.418,457.576c3.321,0,3.326-5.161,0-5.161C252.098,452.415,252.092,457.576,255.418,457.576z"/>
		<path fill="#200900" d="M459.264,349.776c-4.428,0-4.435,6.881,0,6.881C463.691,356.656,463.699,349.776,459.264,349.776z"/>
		<path fill="#200900" d="M472.739,351.496c-4.427,0-4.435,6.881,0,6.881C477.166,358.377,477.174,351.496,472.739,351.496z"/>
		<path fill="#200900" d="M464.138,365.831c-4.427,0-4.435,6.881,0,6.881C468.565,372.712,468.573,365.831,464.138,365.831z"/>
		<path fill="#200900" d="M475.606,691.525c-4.428,0-4.435,6.881,0,6.881C480.033,698.406,480.041,691.525,475.606,691.525z"/>
		<path fill="#200900" d="M474.459,674.323c-4.427,0-4.435,6.881,0,6.881C478.887,681.204,478.894,674.323,474.459,674.323z"/>
		<path fill="#200900" d="M531.943,692.959c-4.428,0-4.435,6.881,0,6.881C536.371,699.84,536.378,692.959,531.943,692.959z"/>
		<path fill="#200900" d="M535.814,671.886c-4.428,0-4.435,6.881,0,6.881C540.241,678.767,540.248,671.886,535.814,671.886z"/>
		<path fill="#200900" d="M550.005,690.809c-4.428,0-4.435,6.881,0,6.881C554.433,697.689,554.44,690.809,550.005,690.809z"/>
		<path fill="#200900" d="M714.143,514.916c4.428,0,4.435-6.881,0-6.881C709.715,508.036,709.708,514.916,714.143,514.916z"/>
		<path fill="#200900" d="M804.167,429.766c-4.428,0-4.435,6.881,0,6.881C808.595,436.647,808.602,429.766,804.167,429.766z"/>
		<path fill="#200900" d="M890.178,579.855c-4.428,0-4.435,6.881,0,6.881C894.606,586.735,894.613,579.855,890.178,579.855z"/>
		<path fill="#200900" d="M878.997,591.896c-4.428,0-4.435,6.881,0,6.881C883.424,598.777,883.432,591.896,878.997,591.896z"/>
		<path fill="#200900" d="M891.031,600.806c-0.672-0.726-1.628-1.208-2.562-1.166c-2.002,0.09-3.268,1.515-3.44,3.44
			c-0.177,1.978,1.092,4.242,2.934,5.037c1.382,0.596,3.049,0.669,4.169-0.538c1.645-1.772,1.628-4.25,0.004-6.024
			C891.832,601.222,891.45,600.972,891.031,600.806z"/>
		<path fill="#200900" d="M913.803,687.377c-1.52-0.031-3.073,0.717-3.88,2.029c-0.707,1.149-0.868,2.458-0.473,3.751
			c0.437,1.433,1.785,2.855,3.317,3.069c0.957,0.134,1.78,0.163,2.651-0.347c0.693-0.406,1.346-1.19,1.555-1.986
			c0.229-0.271,0.462-0.54,0.634-0.862c0.538-1.009,0.727-2.481,0-3.473C916.667,688.276,915.44,687.409,913.803,687.377z"/>
		<path fill="#200900" d="M925.443,672.603c-4.428,0-4.435,6.881,0,6.881C929.87,679.484,929.877,672.603,925.443,672.603z"/>
		<path fill="#200900" d="M942.358,500.581c-4.427,0-4.435,6.881,0,6.881C946.786,507.462,946.793,500.581,942.358,500.581z"/>
		<path fill="#200900" d="M981.663,511.89c-2.488-3.63-8.454-0.193-5.942,3.473c2.248,3.28,4.497,6.561,6.745,9.841
			c2.488,3.63,8.454,0.193,5.941-3.473C986.159,518.45,983.911,515.17,981.663,511.89z"/>
		<path fill="#200900" d="M978.586,549.305c-0.875-1.575-3.169-2.226-4.707-1.234c-1.594,1.028-2.17,3.023-1.234,4.707
			c0.956,1.72,1.911,3.44,2.867,5.161c0.875,1.575,3.169,2.226,4.707,1.234c1.594-1.028,2.17-3.023,1.234-4.707
			C980.498,552.745,979.542,551.025,978.586,549.305z"/>
		<path fill="#200900" d="M1026.179,573.961c-1.131-1.47-2.959-2.257-4.707-1.234c-1.447,0.846-2.374,3.225-1.234,4.707
			c1.911,2.485,3.823,4.97,5.734,7.454c1.131,1.47,2.959,2.257,4.707,1.234c1.447-0.846,2.374-3.225,1.234-4.707
			C1030.002,578.93,1028.09,576.446,1026.179,573.961z"/>
		<path fill="#200900" d="M1222.622,434.737c1.938-2.995,3.755-6.068,5.401-9.232c0,0,2.266-4.178,4.203-9.898
			c2-5.69,3.425-12.945,3.105-18.247c-2.616,4.622-5.388,11.09-7.977,16.242c-2.526,5.172-4.664,9.11-4.664,9.11
			c-1.888,3.631-4.012,7.134-6.296,10.528c-3.766-0.167-7.48,0.95-10.604,3.278c-25.41,18.955-55.591,37.694-82.019,53.039
			c-6.65-6.916-17.144-9.97-26.45-7.59c-8.44,2.157-15.601,8.697-18.738,16.803c-2.678-1.269-5.508-2.189-8.409-2.701
			c1.267-3.852,1.108-8.378-0.861-11.279c-1.897-2.797-4.415-4.729-6.851-6.597c-0.795-0.609-1.589-1.218-2.352-1.856
			c-1.648-1.381-4.39-4.115-4.227-6.914c0.186-3.254,4.146-5.817,7.435-7.393l1.119-0.532c4.477-2.116,9.55-4.514,12-9.652
			c1.755-3.683,1.515-8.059-0.659-12.005c-2.466-4.474-6.953-7.607-11.709-8.174c-7.857-0.945-16.251,4.07-20.396,12.178
			c-0.783,1.529-1.396,3.079-1.989,4.579c-0.796,2.013-1.549,3.916-2.61,5.514c-1.33,2.007-3.803,3.797-5.769,3.173
			c-0.746-0.239-1.593-0.871-2.488-1.54c-1.288-0.963-2.748-2.054-4.668-2.629c-6.024-1.802-11.702,2.76-13.513,8.025
			c-0.825,2.401-1.243,6.016-1.327,9.554c-16.653-9.559-35.999-15.81-57.345-18.491c-3.449-8.688-11.047-15.575-20.136-17.973
			c-9.444-2.491-19.889,0.026-27.234,6.409c-3.73-3.012-7.958-5.408-12.504-7.044c-7.374-2.654-15.376-3.195-23.027-1.686
			c-0.67-10.731-2.302-21.466-6.736-31.765c-6.809-15.81-18.355-25.909-34.399-30.234c2.988-7.054,6.167-14.116,9.487-21.03
			c1.272-2.646,1.324-5.702,0.143-8.382c-1.161-2.634-3.4-4.619-6.142-5.445c-3.383-1.02-6.851-1.896-10.308-2.604
			c-1.841-0.375-3.997-0.706-6.278,0.179c-3.686,1.428-5.132,5.084-5.749,6.643c-3.556,8.976-5.18,18.712-4.787,28.359
			c-22.454,1.612-38.131,17.174-44.34,44.273l-1.609,7.079c-3.594,15.846-7.265,31.981-12.148,47.663
			c-8.908-1.792-18.353-0.768-26.851,2.593c-6.034-10.492-16.502-17.935-29.766-21.081c-14.896-3.532-31.645-1.147-42.812,5.892
			c-2.836-2.646-5.996-4.955-9.435-6.832c-8.499-4.641-18.276-6.487-27.858-5.354c0.661-11.559,1.959-24.663,3.398-32.624
			c1.358-7.517-0.825-13.889-5.99-17.484c-6.106-4.251-15.169-3.776-23.651,1.234c-11.676,6.895-13.18,27.892-12.025,46.064
			c-11.205-8.655-26.148-12.258-40.079-9.441c-0.73-42.72-6.663-86.947-54.907-108.529c-2.801-1.253-5.646-2.324-8.526-3.216
			c4.491-11.338,14.029-39.378,4.51-52.579c-2.653-3.677-7.977-7.854-18.304-6.851c-5.044,0.488-9.323,2.828-12.732,6.937
			c-3.608-25.468-13.494-75.463-36.675-89.485c-7.826-4.735-16.419-5.189-25.539-1.35c-9.774,4.114-16.514,11.24-20.032,21.18
			c-9.14,25.826,6.238,64.225,13.948,80.805c-3.864,0.235-8.4,1.773-13.29,5.929c-4.7,3.994-7.185,9.181-7.388,15.416
			c-0.564,17.323,17.638,38.493,25.149,46.469c-20.665,21.25-22.688,60.928-21.29,70.881c0.384,2.734,0.853,5.643,1.39,8.691
			c-5.803-0.649-11.748,0.053-17.228,2.11c-6.035,2.265-11.399,6.142-15.512,11.085c-0.011-0.007-0.022-0.015-0.033-0.021
			c-8.79-5.146-19.479-6.021-27.899-2.278c-6.705,2.977-11.313,8.54-13.536,16.177c-2.216-2.675-4.254-5.691-6.153-8.636
			c-6.185-9.595-14.906-20.512-27.679-19.954c-11.136,0.505-17.882,9.457-23.833,17.355c-4.74,6.29-9.217,12.232-15.341,14.316
			c-5.988,2.039-13.095,0.034-19.966-1.903l-2.421-0.677c-12.562-3.453-21.803-2.562-28.251,2.725
			c-4.496,3.687-6.956,9.224-6.926,15.594c0.039,8.335,4.325,17.147,10.918,22.448c8.258,6.641,18.395,9.179,28.197,11.635
			c2.344,0.588,4.683,1.173,6.982,1.814c9.492,2.648,21.538,7.922,25.019,18.019c3.059,8.875-1.141,18.973-5.204,28.736
			c-0.543,1.304-1.081,2.599-1.599,3.882c-3.281,8.121-9.496,28.227,3.614,39.521c7.329,6.311,16.787,6.357,25.935,6.402
			c8.044,0.039,15.643,0.076,20.474,4.537c6.193,5.722,5.346,16.54,3.917,25.326c-1.609,9.901-3.814,23.461,3.907,33.203
			c4.804,6.059,13.016,9.654,22.531,9.863c10.26,0.247,19.828-3.079,29.082-6.273c3.71-1.28,7.546-2.606,11.291-3.642
			c0.9-0.249,2.182-0.567,3.692-0.876c-0.959,0.912-1.825,1.817-2.491,2.675c-3.558,4.584-4.845,10.135-3.44,14.847
			c1.668,5.594,7.151,9.935,13.968,11.059c1.489,0.245,2.964,0.348,4.427,0.348c3.688,0,7.29-0.65,10.807-1.285l0.762-0.138
			c3.468-0.625,9.82-0.157,14.545,0.728c3.595,8.324,8.81,13.653,15.22,15.477c1.661,0.474,3.345,0.706,5.04,0.706
			c5.968,0,12.065-2.899,17.712-8.365c2.505,1.494,4.656,3.725,6.355,5.657c0.648,0.736,1.284,1.488,1.92,2.239
			c2.3,2.713,4.677,5.52,7.699,7.813c3.638,2.762,7.65,4.21,11.46,4.21c1.362,0,2.699-0.185,3.982-0.561
			c2.912-0.853,5.261-2.599,7.334-4.139c0.451-0.336,0.902-0.67,1.357-0.995c1.355-0.965,2.533-1.587,3.583-1.937
			c9.852,16.865,19.324,28.884,26.997,30.737c0.88,0.212,1.758,0.318,2.629,0.318c2.565,0,5.063-0.916,7.34-2.708
			c2.392-1.883,7.246-5.713,12.527-24.395c13.188,2.165,55.228,8.401,101.911,8.401c47.131,0,98.967-6.362,130.527-29.699
			c1.686-1.246,3.32-2.542,4.911-3.879c3.309,1.284,7.908,2.853,8.498,3.051c17.503,6.468,44.584,14.316,72.936,14.314
			c13.893-0.001,28.092-1.89,41.614-6.745c18.271,9.804,39.313,14.543,60.931,14.542c26.687-0.001,54.223-7.219,78.422-20.951
			c9.466,3.143,20.318,4.709,32.124,4.709c23.443,0,50.565-6.093,77.646-17.866c43.699-18.996,80.892-49.915,102.044-84.826
			c33.712-55.648,18.68-119.9,6.721-153.248C1229.88,439.982,1226.723,436.593,1222.622,434.737z M1094.203,490.601
			c0.053,0.084,0.099,0.173,0.152,0.256c0,0,0.396,0.63,1.144,1.252c0.742,0.624,1.842,1.217,3.107,1.166
			c0.275-1.236,0.041-2.354-0.239-3.192c-0.169-0.497-0.352-0.875-0.479-1.115c0.376-0.122,0.753-0.238,1.136-0.336
			c6.413-1.638,13.571,0.167,18.546,4.502c-9.791,5.616-18.938,10.703-26.984,15.092c-1.742-2.176-3.753-4.138-5.99-5.825
			C1086.144,497.452,1089.696,493.167,1094.203,490.601z M1066.241,502.508c-0.005,0.232-0.031,0.462-0.03,0.694
			c0,0-0.005,0.827,0.32,1.845c0.316,1.017,0.99,2.204,2.134,2.842c0.829-1.013,1.177-2.169,1.37-3.09
			c0.186-0.919,0.19-1.615,0.19-1.615c0-0.027,0.003-0.054,0.003-0.081c5.443,1.246,10.512,4.264,14.207,8.459
			c-10.391,5.604-18.369,9.745-22.667,11.949c-3.229-5.334-6.567-10.731-10.122-15.938c-0.307-0.45-0.633-0.883-0.945-1.328
			C1055.345,503.49,1060.863,502.156,1066.241,502.508z M1019.145,463.203c0.746-2.17,3.104-4.248,5.03-3.671
			c0.754,0.225,1.615,0.869,2.525,1.55c1.25,0.933,2.666,1.992,4.51,2.581c5.487,1.758,10.893-1.841,13.601-5.922
			c1.46-2.201,2.382-4.533,3.274-6.788c0.558-1.411,1.085-2.743,1.715-3.977c2.416-4.723,7.817-9.137,13.458-8.478
			c2.552,0.305,5.102,2.134,6.495,4.663c0.642,1.163,1.556,3.454,0.474,5.723c-1.393,2.925-4.956,4.608-8.727,6.391l-1.152,0.547
			c-7.214,3.459-11.027,7.901-11.333,13.202c-0.252,4.363,2.058,8.714,6.679,12.586c0.837,0.701,1.708,1.371,2.58,2.041
			c2.095,1.606,4.072,3.123,5.345,5.001c0.975,1.436,0.473,5.113-0.759,6.954c-5.739,0.297-11.428,2.059-16.293,5.087
			c-4.08-5.152-8.55-9.937-13.392-14.332c0.779-0.468,1.492-1.039,2.102-1.7c0,0,0.436-0.422,0.955-1.272
			c0.513-0.834,1.097-2.169,1.15-3.734c0.038-1.506-0.301-2.743-0.311-3.742c0.007-0.967,0.286-2.099,1.336-2.641
			c-0.526-0.257-1.33-0.182-1.99,0.222c-0.667,0.395-1.22,1.026-1.583,1.799c-0.683,1.547-0.676,3.047-0.941,3.95
			c-0.228,0.863-0.636,1.525-0.97,1.985c-0.335,0.458-0.59,0.702-0.59,0.702c-0.674,0.743-1.569,1.255-2.494,1.52
			c-3.666-3.091-7.523-5.976-11.563-8.648C1018.006,471.025,1018.265,465.764,1019.145,463.203z M924.662,440.078l0.088,0.353
			c0,0,0.485,1.939,2.699,2.523c1.069-0.992,1.26-2.133,1.258-2.835c1.138,0.111,2.266,0.3,3.368,0.591
			c5.665,1.495,10.7,5.43,13.787,10.467c-9.623-0.786-19.617-0.866-29.921-0.228c-1.284-2.025-2.731-3.934-4.325-5.708
			C915.272,442.269,919.927,440.455,924.662,440.078z M882.525,437.901c0.005,0.587,0.163,2.213,1.69,3.339
			c1.54-0.747,2.059-2.106,2.229-2.789c1.801,0.351,3.583,0.82,5.32,1.445c6.383,2.298,12.002,6.398,16.191,11.696
			c-0.995,0.096-1.984,0.179-2.984,0.288c-11.893,1.292-23.032,3.183-33.21,5.621c-0.08-2.906-0.126-5.845-0.17-8.82
			c-0.049-3.314-0.101-6.652-0.206-10C875.04,437.85,878.802,437.588,882.525,437.901z M819.079,342.262
			c0.457-1.154,0.756-1.603,0.9-1.773c0.376,0,1.134,0.155,1.403,0.211c3.204,0.656,6.417,1.467,9.552,2.412
			c0.433,0.131,0.65,0.441,0.754,0.679c0.097,0.222,0.225,0.671-0.025,1.189c-3.636,7.575-7.112,15.322-10.352,23.047
			c-2.078-0.276-4.2-0.496-6.403-0.609C814.512,358.865,815.927,350.223,819.079,342.262z M746.061,473.083
			c-3.105,9.19-6.696,18.182-11.009,26.823c-5.716-4.682-11.795-8.866-18.198-12.448c-2.095-1.172-4.229-2.287-6.391-3.358
			C719.609,475.064,733.404,470.802,746.061,473.083z M678.042,453.238l0.103,0.919c0,0,0.366,3.271,2.562,4.856
			c1.793-2.03,1.427-5.302,1.427-5.302l-0.032-0.287c2.656,0.226,5.303,0.637,7.891,1.251c11.186,2.653,19.998,8.784,25.123,17.379
			c-4.193,2.391-7.999,5.414-11.224,8.987c-14.17-6.206-29.461-10.461-44.917-13.286c-1.499-3.108-3.336-6.023-5.465-8.71
			C660.185,455.161,669.009,453.122,678.042,453.238z M611.151,448.682c3.592-0.524,7.273-0.543,10.904-0.071
			c0.255,0.546,0.642,1.111,1.275,1.582c0.601-0.313,1.031-0.724,1.358-1.148c2.71,0.533,5.365,1.319,7.894,2.387
			c0.013,0.273,0.004,0.548,0.022,0.821c0,0,0.069,1.239,0.501,2.771c0.422,1.531,1.239,3.334,2.492,4.413
			c0.711-1.493,0.908-3.332,0.996-4.819c0.023-0.431,0.033-0.826,0.037-1.179c5.441,3.103,10.158,7.595,13.624,12.869
			c-13.171-1.962-26.329-2.963-38.88-3.32C610.974,460.152,610.932,454.936,611.151,448.682z M589.607,400.219
			c5.466-3.227,11.103-3.851,14.365-1.58c2.97,2.067,2.966,5.978,2.439,8.895c-1.383,7.648-2.884,22.221-3.571,34.65
			c-0.457,8.271-0.5,14.082-0.271,18.202c-0.854,0.89-1.78,1.698-2.755,2.448c-5.111,0.006-10.076,0.108-14.86,0.282
			C580.711,440.936,578.505,406.775,589.607,400.219z M533.207,436.441c14.457-3.39,30.925,1.685,40.933,12.651
			c0.679,5.834,1.504,10.901,2.146,14.424c-17.307,0.97-31.506,2.771-40.154,4.067l1.64-3.85c0,0,3.432-8.058,3.483-13.297
			c-3.743,3.666-7.176,11.724-7.176,11.724l-0.925,2.172c0.054-6.118,0.08-11.85,0.08-17.078
			C533.233,443.682,533.23,440.07,533.207,436.441z M532.895,484.418c1.619-4.453,6.1-7.159,10.406-9.087
			c6.965-0.9,16.099-1.899,26.697-2.631c0.373,0.746,0.746,1.493,1.119,2.239c0.807,1.613,3.216,2.196,4.707,1.234
			c1.403-0.904,1.926-2.426,1.525-3.922c14.944-0.792,32.185-0.961,50.037,0.358c-0.655,3.909-1.31,7.817-1.964,11.725
			c-0.726,4.332,5.904,6.194,6.635,1.829c0.724-4.325,1.449-8.65,2.174-12.974c21.555,2.053,43.664,6.411,63.419,14.563
			c-1.097,7.568-3.064,15.207-8.641,18.781c-4.589,2.942-11.54,2.641-17.71-0.768c-6.181-3.414-11.076-9.134-15.811-14.667
			l-4.502-5.26l-2.72,6.367c-5.198,12.171-10.573,24.755-19.531,34.396c-7.411,7.976-19.915,15.504-32.787,12.724
			c-7.091-1.532-14.067-6.335-19.646-13.525c-5.326-6.861-9.001-15.149-12.308-23.05l-2.083-4.978l-4.387,3.14
			c-7.349,5.26-18.726,4.005-24.899-2.563C532.73,493.588,532.819,488.935,532.895,484.418z M449.67,270.819
			c1.96-2.419,4.269-3.726,7.06-3.997c7.57-0.732,9.775,2.317,10.498,3.319c5.456,7.56,0.902,27.131-4.408,41.479
			c-2.459,1.332-5.482,2.404-8.491,2.836c0.519-2.001,1.021-4.006,1.485-6.02c0,0,0.738-3.115,1.167-7.185
			c0.444-4.065,0.527-9.081-0.459-12.75c-1.993,3.234-3.542,7.885-4.707,11.715c-1.15,3.831-1.867,6.86-1.867,6.86
			c-0.554,2.401-1.163,4.79-1.794,7.172c-2.258-0.584-4.201-1.842-5.518-3.98C442.115,298.19,442.866,279.216,449.67,270.819z
			 M369.031,198.413c2.714-7.669,7.706-12.942,15.26-16.122c6.529-2.748,12.336-2.493,17.749,0.78
			c22.317,13.495,32.242,74.219,34.277,97.286c-3.161,13.129-2.476,28.546-1.972,35.114c-2.473,0.412-4.951,0.941-7.429,1.581
			c-2.938-12.491-6.125-24.931-9.624-37.286c0,0-3.346-12.042-8.558-27.096c-5.187-15.074-12.305-33.017-17.849-45.672
			c2.681,13.586,8.398,32.086,12.831,47.277c4.466,15.193,7.782,27.129,7.782,27.129c3.502,12.367,6.692,24.823,9.633,37.345
			c-3.676,1.212-7.346,2.674-10.997,4.381c-2.968-12.587-10.91-35.68-24.265-43.862C382.07,271.834,359.413,225.592,369.031,198.413
			z M362.789,297.974c0.122-3.761,1.549-6.752,4.362-9.143c4.25-3.612,8.139-4.721,11.9-3.377
			c10.127,3.611,18.678,23.246,22.365,38.139c-1.546,1.679-3.175,3.245-4.888,4.696l-3.622-7.73c0,0-7.384-15.759-14.19-23.19
			c1.354,9.985,8.738,25.745,8.738,25.745l4.16,8.878c-0.367,0.245-0.739,0.484-1.112,0.72c-2.529,1.099-5.252,1.797-8.096,2.064
			C373.902,325.106,362.416,309.402,362.789,297.974z M344.63,432.287c5.137-1.928,10.769-2.391,16.155-1.398
			c0.894,4.512,1.926,9.295,3.085,14.318c-5.463,0.283-10.839,1.9-15.548,4.721c-2.061,1.234-3.961,2.708-5.704,4.347
			c-2.737-5.214-6.275-9.745-10.347-13.294C335.585,437.113,339.851,434.08,344.63,432.287z M365.492,452.064
			c4.405,18.122,10.299,38.965,17.285,61.226c-10.201,4.018-19.916-2.286-25.466-9.503c-3.846-5.004-5.73-11.307-7.725-17.982
			c-0.855-2.859-1.74-5.816-2.798-8.7c-1.404-3.827-3.153-7.227-5.159-10.172c2.265-4.578,5.837-8.474,10.229-11.103
			C355.967,453.369,360.713,452.085,365.492,452.064z M291.06,456.078c1.237-7.514,4.77-12.614,10.501-15.16
			c6.337-2.811,14.824-2.055,21.63,1.929c6.024,3.527,11.194,9.603,14.555,17.11l0.039-0.018c-0.306,0.451-0.618,0.897-0.902,1.362
			c-4.238-4.007-9.178-6.353-14.433-6.652c-4.877-0.276-9.232,1.183-13.448,2.595c-3.568,1.194-6.937,2.323-10.131,2.171
			c-3.074-0.145-5.875-1.448-8.452-3.442L291.06,456.078z M366.235,684.957l-0.77,0.139c-4.535,0.818-8.819,1.591-12.891,0.919
			c-3.473-0.571-7.446-2.721-8.493-6.234c-0.909-3.047,0.583-6.473,2.281-8.662c1.669-2.15,5.635-5.292,9.374-7.941
			c5.685,0.276,11.612,1.849,15.956,6.162c-0.591,0.056-1.181,0.123-1.772,0.172c0,0-2.567,0.232-5.847,0.64
			c-3.281,0.423-7.285,0.973-10.186,1.934c2.871,1.046,6.979,1.5,10.356,1.574c3.379,0.089,6.016-0.149,6.016-0.149
			c1.459-0.122,2.917-0.266,4.372-0.428c1.967,3.276,3.211,7.173,4.499,11.261c0.08,0.254,0.167,0.503,0.248,0.757
			C374.896,684.539,369.807,684.317,366.235,684.957z M421.336,684.834c-0.702,1.028-1.4,2.048-2.101,3.046
			c-2.388,3.397-10.859,14.286-19.667,11.783c-5.561-1.582-8.901-8.094-10.724-13.275c-0.535-1.522-1.023-3.073-1.513-4.626
			c-1.804-5.727-3.67-11.65-7.789-16.624c-8.426-10.184-24.17-13.293-42.113-8.326c-4.003,1.109-7.969,2.476-11.803,3.8
			c-8.932,3.083-17.347,5.977-26.087,5.806c-6.946-0.153-12.771-2.56-15.978-6.607c-5.363-6.767-3.586-17.698-2.157-26.48
			c1.775-10.909,2.632-24.523-6.571-33.023c-7.284-6.731-16.935-6.777-26.269-6.822c-7.938-0.039-15.437-0.076-20.363-4.319
			c-9.145-7.877-3.271-24.787-1.253-29.781c0.507-1.257,1.035-2.523,1.567-3.8c4.461-10.724,9.518-22.879,5.393-34.843
			c-3.771-10.939-14.146-18.845-30.839-23.502c-2.373-0.662-4.785-1.267-7.203-1.871c-9.313-2.333-18.11-4.537-24.897-9.995
			c-4.583-3.686-7.681-10.029-7.707-15.786c-0.013-2.638,0.633-6.324,3.778-8.903c4.133-3.387,10.845-3.743,20.518-1.083
			l2.366,0.662c7.758,2.188,16.551,4.668,25.072,1.767c8.629-2.937,14.124-10.23,19.438-17.282
			c5.506-7.308,10.261-13.618,17.353-13.939c8.378-0.401,15.122,8.362,20.06,16.021c6.407,9.939,14.277,20.591,26.614,21.174
			c4.794,0.23,9.108-1.214,13.269-2.606c3.603-1.207,7.003-2.36,10.229-2.163c7.962,0.454,13.873,8.992,16.75,16.832
			c0.968,2.636,1.776,5.339,2.632,8.201c2.13,7.126,4.333,14.497,9.147,20.758c9.409,12.239,22.896,16.867,34.895,12.481
			c6.587,20.531,14.037,42.101,22.066,63.758c-3.797-1.467-8.715-3.474-14.474-6.061l-1.082-6.115c0,0-1.447-8.18-5.211-12.176
			c-2.165,5.044-0.718,13.225-0.718,13.225l0.351,1.987c-14.37-6.844-32.515-16.749-51.113-30.158
			c0.289-1.388,0.613-2.768,1.024-4.126c0,0,0.532-1.88,1.12-4.361c0.564-2.495,1.276-5.574,1.157-8.321
			c-2.471,1.207-4.693,3.907-6.051,6.37c-1.389,2.455-1.995,4.587-1.995,4.587c-0.196,0.649-0.351,1.31-0.521,1.967
			c-8.636-6.516-17.302-13.788-25.668-21.872l3.105-6.253c0,0,4.229-8.518,3.87-14.564c-5.033,3.368-9.263,11.886-9.263,11.886
			l-2.216,4.462c-4.602-4.674-9.094-9.597-13.415-14.786c-3.109-3.733-8.223-4.685-12.441-2.308
			c-4.197,2.364-6.029,7.208-4.455,11.779c2.776,8.063,6.725,17.231,13.118,27.354c-3.408,0.404-6.813,0.835-10.208,1.332
			c0,0-4.599,0.649-10.365,2.034c-5.768,1.365-12.678,3.53-17.316,6.107c5.294,0.361,12.399-0.307,18.217-0.917
			c5.812-0.629,10.332-1.266,10.332-1.266c4.352-0.637,8.716-1.178,13.087-1.664c7.747,11.064,18.498,23.166,33.76,36.133
			l-7.572,3.068c0,0-12.543,5.083-18.344,10.682c8.062-0.019,20.605-5.102,20.605-5.102l10.205-4.136l-0.272-0.671
			c12.431,10.102,27.626,20.705,46.264,31.729l-4.354,2.128c0,0-11.247,5.498-16.139,11.24c7.537-0.334,18.783-5.831,18.783-5.831
			l7.962-3.892c11.141,6.383,23.458,12.903,37.052,19.542l-1.298,3.465c0,0-3.246,8.665-2.221,14.51
			c4.613-3.732,7.859-12.398,7.859-12.398l1.103-2.945c3.904,1.869,7.909,3.747,12.021,5.634c2.194,5.161,4.458,10.38,6.772,15.58
			c-0.739,2.63-2.14,5.035-3.774,7.326C429.134,673.455,425.054,679.398,421.336,684.834z M411.441,595.906
			c1.53,4.037,3.076,8.072,4.641,12.098c3.169,8.149,6.79,17.252,10.721,26.778C314.2,581.558,287.665,536.891,277.59,507.63
			c-0.084-0.245-0.34-0.99,0.543-1.487c0.916-0.516,1.44,0.111,1.61,0.318C329.352,566.043,398.537,591.538,411.441,595.906z
			 M456.081,708.895c-0.491,0.351-0.979,0.712-1.468,1.075c-1.766,1.312-3.434,2.552-5.167,3.061c-2.719,0.8-6.212-0.15-9.346-2.527
			c-2.419-1.838-4.454-4.238-6.608-6.782c-0.664-0.783-1.328-1.567-2.004-2.337c-1.826-2.076-4.109-4.432-6.889-6.308
			c0.564-0.727,1.123-1.471,1.672-2.253c0.722-1.026,1.441-2.078,2.165-3.135c4.458-6.519,9.068-13.239,15.58-15.428
			c1.781,3.835,3.581,7.625,5.391,11.338c-2.163,1.117-4.234,2.41-6.144,3.913c0,0-2.143,1.593-4.262,4.215
			c-2.164,2.575-4.075,6.265-4.473,9.188c2.18-1.985,4.71-4.761,7.027-6.777c2.271-2.051,4.176-3.46,4.176-3.46
			c1.697-1.337,3.548-2.455,5.46-3.448c3,6.047,6.02,11.853,9.02,17.272C458.613,707.198,457.207,708.092,456.081,708.895z
			 M495.301,734.151c-1.217,0.959-2.016,0.941-2.631,0.786c-9.889-2.385-34.927-43.525-68.572-130.051
			c-21.851-56.195-40.446-114.034-50.601-156.281c23.362,11.827,49.309,16.075,75.448,12.52c4.368-0.594,2.508-7.225-1.829-6.635
			c-26.291,3.576-52.676-1.721-75.69-14.794c-2.164-9.691-3.81-18.394-4.858-25.849c-0.749-5.332-0.511-47.448,21.683-66.285
			c19.086-16.199,39.698-24.571,59.327-24.571c9.357,0,18.492,1.903,27.131,5.768c49.922,22.332,49.922,71.218,49.922,118.496
			c0,34.487-0.827,75.095-2.683,114.779c-8.617,8.809-18.326,16.19-29.18,22.12c-3.887,2.124-0.419,8.068,3.473,5.941
			c9.14-4.994,17.568-11.007,25.211-17.981C517.412,650.665,509.228,723.186,495.301,734.151z M740.473,688.302
			c-55.452,41.002-182.649,26.083-219.614,20.67c-1.835-0.951-3.499-2.22-4.893-3.774c4.339-19.653,8.722-50.497,12.075-99.36
			c2.17-31.623,3.547-66.016,4.333-96.852c7.669,4.393,17.459,5.064,25.575,1.518c3.076,7.052,6.626,14.215,11.558,20.569
			c6.815,8.784,15.561,14.699,24.624,16.658c2.36,0.511,4.778,0.759,7.222,0.759c11.765,0,24.151-5.777,33.683-16.035
			c8.305-8.939,13.806-20.058,18.434-30.598c3.894,4.275,8.305,8.473,13.67,11.437c7.08,3.909,17.761,6.088,26.51,0.479
			c7.771-4.98,10.649-13.662,12.135-22.386c2.332,1.132,4.624,2.321,6.868,3.576c36.973,20.685,62.669,62.549,65.466,106.658
			c0.65,10.257,0.002,20.055-1.802,29.309c-17.912,16.295-42.989,16.371-65.925,16.086c-4.429-0.055-4.432,6.826,0,6.881
			c21.809,0.271,44.855-0.246,63.223-12.228C767.749,660.443,756.545,676.418,740.473,688.302z M762.562,686.534
			c-1.328-1.014-2.34-2.414-2.848-4.013c19.293-20.982,28.999-49.74,26.988-81.443c-2.3-36.29-19.212-71.166-44.991-95.33
			c13.724-26.643,20.464-56.123,26.944-84.693c4.91,3.957,10.464,6.978,16.534,9.021c4.206,1.416,6.011-5.228,1.829-6.635
			c-6.285-2.115-11.847-5.496-16.631-9.982c5.765-24.922,19.161-37.564,39.83-37.564c23.134,0,38.25,8.987,46.212,27.475
			c6.1,14.174,6.325,29.36,6.562,45.436c0.213,14.524,0.435,29.544,5.408,43.721c5.455,15.531,16.282,28.594,26.751,41.226
			c8.982,10.837,18.269,22.044,23.742,34.466c17.058,38.695,6.306,97.661-36.395,120.405
			C842.103,710.14,790.37,696.716,762.562,686.534z M897.591,702.623c-0.177-0.382-0.45-0.743-0.846-1.06
			c-2.814-2.253-4.354-5.776-3.728-9.25c37.732-25.111,53.571-82.589,33.745-127.562c-5.955-13.518-15.631-25.193-24.99-36.486
			c-10.446-12.604-20.313-24.511-25.257-38.586c-1.133-3.229-1.993-6.51-2.65-9.841c0.026-0.156,0.06-0.307,0.068-0.477
			c0.26-6.12,3.296-11.703,8.367-15.17c0.114-0.078,0.2-0.168,0.3-0.252c7.343-1.445,15.131-2.623,23.303-3.511
			c61.016-6.667,111.554,12.282,138.64,51.994c4.428,6.484,8.578,13.384,12.589,20.055c4.72,7.85,9.602,15.966,15.05,23.619
			c9.402,13.222,11.877,14.768,25.18,21.825l1.561,0.828c3.509,1.863,5.549,4.704,5.594,7.791c0.044,3.036-1.866,5.875-5.236,7.79
			c-1.238,0.702-2.406,1.354-3.519,1.974c-7.832,4.364-13.49,7.519-20.644,15.9c-6.76,7.919-11.863,16.691-16.799,25.175
			c-6.362,10.934-12.371,21.262-21.694,30.085C998.987,703.084,942.88,716.369,897.591,702.623z M1101.098,603.177
			c-0.445,3.744-1.78,7.289-4.531,10.25c-3.696,3.977-9.174,5.167-13.841,3.144c5.63-6.289,10.098-8.781,17.223-12.752
			C1100.322,603.611,1100.711,603.393,1101.098,603.177z M1217.355,593.108c-40.235,66.416-132.393,105.698-188.493,97.367
			c-1.234-0.795-2.285-1.852-3.078-3.097c5.877-4.141,11.494-8.688,16.754-13.666c1.896-1.795,3.634-3.662,5.303-5.559l0.097,1.009
			c15.376-1.591,30.608-4.727,45.246-9.692c0,0,0.844-0.284,2.379-0.8c1.548-0.481,3.724-1.37,6.446-2.414
			c5.443-2.088,12.864-5.387,20.844-9.709c7.992-4.295,16.5-9.704,24.159-15.697c7.689-5.953,14.54-12.424,19.749-18.215
			c-6.234,4.688-13.715,10.207-21.757,15.372c-8.013,5.206-16.604,10.001-24.566,13.858c-7.949,3.882-15.23,6.917-20.554,8.859
			c-2.662,0.971-4.783,1.815-6.291,2.27c-1.493,0.494-2.314,0.766-2.314,0.766c-12.609,4.279-25.668,7.147-38.864,8.821
			c5.115-6.758,9.275-13.889,13.338-20.874c4.033-6.933,7.899-13.544,12.559-19.716c6.273,3.461,14.039,3.352,20.128-1.092
			c7.234-5.281,10.135-13.974,9.647-22.593c3.257-3.299,5.094-7.478,5.031-11.888c-0.089-6.227-3.887-11.934-10.16-15.264
			l-1.564-0.83c-12.414-6.585-13.711-7.274-22.202-19.215c-1.602-2.25-3.149-4.563-4.673-6.898
			c7.647-3.62,14.876-7.93,21.659-13.031c2.622-1.972,0.053-6.455-2.605-4.456c-6.842,5.145-14.138,9.487-21.86,13.127
			c-1.873-2.98-3.692-5.976-5.489-8.957c18.101-9.302,91.628-47.883,144.711-87.482c2.051-1.532,4.641-1.986,7.093-1.246
			c2.493,0.751,4.428,2.593,5.31,5.054C1232.551,472.907,1250.412,538.545,1217.355,593.108z"/>
		<path fill="#200900" d="M1179.885,501.401c-10.653,3.834-13.827,15.624-10.584,25.609c1.362,4.194,8.009,2.399,6.635-1.829
			c-1.951-6.006-1.345-13.659,5.027-16.803c6.997-3.453,12.543,1.935,15.734,7.625c2.812,5.015,4.778,11.194,2.855,16.889
			c-2.406,7.122-12,11.542-16.59,3.678c-2.231-3.823-8.18-0.363-5.941,3.473c4.814,8.248,15.66,10.009,23.028,3.949
			c8.853-7.281,8.325-19.763,3.741-29.266C1199.352,505.525,1190.708,497.505,1179.885,501.401z"/>
		<path fill="#200900" d="M1128.967,528.571c-12.583,5.015-16.158,19.224-12.186,31.186c1.389,4.182,8.036,2.39,6.635-1.829
			c-2.6-7.831-1.806-17.344,6.017-21.967c9.443-5.581,17.458,1.484,21.988,9.407c4.076,7.13,6.546,15.729,3.231,23.629
			c-3.828,9.123-16.321,13.97-22.209,3.632c-2.192-3.847-8.139-0.385-5.942,3.473c5.699,10.004,19.03,12.141,27.891,4.812
			c11.063-9.151,10.118-24.82,4.271-36.587C1153.044,533.016,1142.267,523.27,1128.967,528.571z"/>
		<path fill="#200900" d="M1106.352,519.79c-3.321,0-3.326,5.161,0,5.161C1109.673,524.951,1109.678,519.79,1106.352,519.79z"/>
		<path fill="#200900" d="M1118.394,517.783c3.321,0,3.326-5.161,0-5.161C1115.073,512.623,1115.067,517.783,1118.394,517.783z"/>
		<path fill="#200900" d="M1013.46,566.236c-3.321,0-3.326,5.161,0,5.161C1016.781,571.397,1016.786,566.236,1013.46,566.236z"/>
		<path fill="#200900" d="M985.363,567.956c-3.321,0-3.326,5.161,0,5.161C988.684,573.117,988.69,567.956,985.363,567.956z"/>
		<path fill="#929B23" d="M1126.601,778.969c-12.409,0-18.743,6.127-24.33,11.531c-5.055,4.89-9.419,9.112-18.348,9.112
			c-8.93,0-13.295-4.223-18.35-9.112c-5.587-5.404-11.92-11.531-24.328-11.531c-12.408,0-18.739,6.127-24.327,11.531
			c-5.053,4.888-9.418,9.112-18.346,9.112c-8.927,0-13.291-4.222-18.344-9.112c-5.586-5.404-11.917-11.531-24.325-11.531
			s-18.741,6.127-24.327,11.531c-5.053,4.89-9.418,9.112-18.344,9.112c-8.927,0-13.291-4.222-18.345-9.112
			c-5.586-5.404-11.917-11.531-24.325-11.531c-12.406,0-18.738,6.127-24.323,11.531c-5.053,4.89-9.416,9.112-18.341,9.112
			c-8.927,0-13.29-4.223-18.343-9.112c-5.586-5.404-11.916-11.531-24.322-11.531c-12.404,0-18.736,6.127-24.32,11.531
			c-5.051,4.89-9.414,9.112-18.339,9.112c-8.927,0-13.29-4.222-18.343-9.112c-5.586-5.404-11.917-11.531-24.323-11.531
			c-12.407,0-18.738,6.127-24.323,11.531c-5.053,4.89-9.417,9.112-18.343,9.112s-13.29-4.222-18.342-9.112
			c-5.586-5.404-11.916-11.531-24.322-11.531c-12.406,0-18.737,6.127-24.322,11.531c-5.052,4.89-9.416,9.112-18.342,9.112
			s-13.29-4.222-18.341-9.112c-5.587-5.404-11.917-11.531-24.324-11.531c-12.406,0-18.738,6.127-24.323,11.531
			c-5.051,4.89-9.415,9.112-18.34,9.112c-8.927,0-13.291-4.222-18.344-9.112c-5.586-5.404-11.917-11.531-24.323-11.531
			s-18.737,6.127-24.322,11.531c-5.052,4.89-9.416,9.112-18.342,9.112c-8.925,0-13.288-4.222-18.339-9.112
			c-5.586-5.404-11.916-11.531-24.322-11.531s-18.735,6.127-24.32,11.531c-5.052,4.89-9.415,9.112-18.34,9.112
			c-8.924,0-13.287-4.222-18.339-9.112c-5.586-5.404-11.916-11.531-24.321-11.531c-2.375,0-4.301,1.925-4.301,4.301
			c0,2.375,1.925,4.301,4.301,4.301c8.924,0,13.287,4.222,18.339,9.112c5.586,5.404,11.916,11.531,24.321,11.531
			s18.736-6.127,24.322-11.531c5.051-4.89,9.414-9.112,18.339-9.112c8.925,0,13.288,4.222,18.339,9.112
			c5.586,5.404,11.916,11.531,24.322,11.531c12.406,0,18.738-6.127,24.322-11.531c5.052-4.89,9.416-9.112,18.341-9.112
			c8.926,0,13.29,4.222,18.343,9.112c5.586,5.404,11.917,11.531,24.324,11.531c12.406,0,18.737-6.127,24.322-11.531
			c5.052-4.89,9.416-9.112,18.342-9.112c8.927,0,13.29,4.222,18.343,9.112c5.586,5.404,11.916,11.531,24.322,11.531
			s18.737-6.127,24.322-11.531c5.052-4.89,9.416-9.112,18.342-9.112s13.29,4.222,18.342,9.112
			c5.586,5.404,11.916,11.531,24.322,11.531c12.407,0,18.738-6.127,24.323-11.531c5.053-4.89,9.417-9.112,18.343-9.112
			c8.927,0,13.29,4.222,18.343,9.112c5.586,5.404,11.917,11.531,24.323,11.531c12.404,0,18.736-6.127,24.32-11.531
			c5.051-4.89,9.414-9.112,18.339-9.112c8.925,0,13.288,4.222,18.341,9.112c5.586,5.404,11.917,11.531,24.323,11.531
			s18.736-6.127,24.322-11.531c5.053-4.888,9.416-9.112,18.343-9.112c8.927,0,13.291,4.222,18.344,9.112
			c5.586,5.404,11.917,11.531,24.325,11.531c12.408,0,18.739-6.127,24.325-11.531c5.053-4.888,9.418-9.112,18.346-9.112
			c8.927,0,13.291,4.222,18.344,9.112c5.586,5.404,11.917,11.531,24.325,11.531s18.739-6.127,24.327-11.531
			c5.053-4.888,9.418-9.112,18.346-9.112s13.295,4.222,18.348,9.112c5.587,5.404,11.921,11.531,24.33,11.531
			c12.408,0,18.741-6.127,24.328-11.531c5.055-4.888,9.419-9.112,18.349-9.112c2.375,0,4.301-1.925,4.301-4.301
			C1130.902,780.894,1128.977,778.969,1126.601,778.969z"/>
	</g>
</g>
</svg>
